<?xml version="1.0" encoding="UTF-8" standalone="no"?><svg xmlns="http://www.w3.org/2000/svg" xmlns:xlink="http://www.w3.org/1999/xlink" contentScriptType="application/ecmascript" contentStyleType="text/css" height="736px" preserveAspectRatio="none" style="width:1219px;height:736px;" version="1.1" viewBox="0 0 1219 736" width="1219px" zoomAndPan="magnify"><defs><filter height="300%" id="f1044dasxaaa7u" width="300%" x="-1" y="-1"><feGaussianBlur result="blurOut" stdDeviation="2.0"/><feColorMatrix in="blurOut" result="blurOut2" type="matrix" values="0 0 0 0 0 0 0 0 0 0 0 0 0 0 0 0 0 0 .4 0"/><feOffset dx="4.0" dy="4.0" in="blurOut2" result="blurOut3"/><feBlend in="SourceGraphic" in2="blurOut3" mode="normal"/></filter></defs><g><line style="stroke:#A80036;stroke-width:1.0;stroke-dasharray:5.0,5.0;" x1="29" x2="29" y1="88.2969" y2="729.9531"/><line style="stroke:#A80036;stroke-width:1.0;stroke-dasharray:5.0,5.0;" x1="178.5" x2="178.5" y1="88.2969" y2="729.9531"/><line style="stroke:#A80036;stroke-width:1.0;stroke-dasharray:5.0,5.0;" x1="282.5" x2="282.5" y1="88.2969" y2="729.9531"/><line style="stroke:#A80036;stroke-width:1.0;stroke-dasharray:5.0,5.0;" x1="413" x2="413" y1="88.2969" y2="729.9531"/><line style="stroke:#A80036;stroke-width:1.0;stroke-dasharray:5.0,5.0;" x1="551" x2="551" y1="88.2969" y2="729.9531"/><line style="stroke:#A80036;stroke-width:1.0;stroke-dasharray:5.0,5.0;" x1="664.5" x2="664.5" y1="88.2969" y2="729.9531"/><line style="stroke:#A80036;stroke-width:1.0;stroke-dasharray:5.0,5.0;" x1="748.5" x2="748.5" y1="88.2969" y2="729.9531"/><line style="stroke:#A80036;stroke-width:1.0;stroke-dasharray:5.0,5.0;" x1="853.5" x2="853.5" y1="88.2969" y2="729.9531"/><line style="stroke:#A80036;stroke-width:1.0;stroke-dasharray:5.0,5.0;" x1="985.5" x2="985.5" y1="88.2969" y2="729.9531"/><line style="stroke:#A80036;stroke-width:1.0;stroke-dasharray:5.0,5.0;" x1="1187.5" x2="1187.5" y1="88.2969" y2="729.9531"/><text fill="#000000" font-family="sans-serif" font-size="14" lengthAdjust="spacing" textLength="42" x="5" y="84.9951">调用方</text><ellipse cx="29" cy="15" fill="#FEFECE" filter="url(#f1044dasxaaa7u)" rx="8" ry="8" style="stroke:#A80036;stroke-width:2.0;"/><path d="M29,23 L29,50 M16,31 L42,31 M29,50 L16,65 M29,50 L42,65 " fill="none" filter="url(#f1044dasxaaa7u)" style="stroke:#A80036;stroke-width:2.0;"/><rect fill="#FEFECE" filter="url(#f1044dasxaaa7u)" height="30.2969" style="stroke:#A80036;stroke-width:1.5;" width="91" x="131.5" y="53"/><text fill="#000000" font-family="sans-serif" font-size="14" lengthAdjust="spacing" textLength="77" x="138.5" y="72.9951">Source模块</text><rect fill="#FEFECE" filter="url(#f1044dasxaaa7u)" height="30.2969" style="stroke:#A80036;stroke-width:1.5;" width="88" x="236.5" y="53"/><text fill="#000000" font-family="sans-serif" font-size="14" lengthAdjust="spacing" textLength="74" x="243.5" y="72.9951">Source API</text><rect fill="#FEFECE" filter="url(#f1044dasxaaa7u)" height="30.2969" style="stroke:#A80036;stroke-width:1.5;" width="135" x="344" y="53"/><text fill="#000000" font-family="sans-serif" font-size="14" lengthAdjust="spacing" textLength="121" x="351" y="72.9951">Source Converter</text><rect fill="#FEFECE" filter="url(#f1044dasxaaa7u)" height="30.2969" style="stroke:#A80036;stroke-width:1.5;" width="112" x="493" y="53"/><text fill="#000000" font-family="sans-serif" font-size="14" lengthAdjust="spacing" textLength="98" x="500" y="72.9951">App Integrator</text><rect fill="#FEFECE" filter="url(#f1044dasxaaa7u)" height="30.2969" style="stroke:#A80036;stroke-width:1.5;" width="71" x="627.5" y="53"/><text fill="#000000" font-family="sans-serif" font-size="14" lengthAdjust="spacing" textLength="57" x="634.5" y="72.9951">Sink模块</text><rect fill="#FEFECE" filter="url(#f1044dasxaaa7u)" height="30.2969" style="stroke:#A80036;stroke-width:1.5;" width="68" x="712.5" y="53"/><text fill="#000000" font-family="sans-serif" font-size="14" lengthAdjust="spacing" textLength="54" x="719.5" y="72.9951">Sink API</text><rect fill="#FEFECE" filter="url(#f1044dasxaaa7u)" height="30.2969" style="stroke:#A80036;stroke-width:1.5;" width="115" x="794.5" y="53"/><text fill="#000000" font-family="sans-serif" font-size="14" lengthAdjust="spacing" textLength="101" x="801.5" y="72.9951">Sink Converter</text><rect fill="#FEFECE" filter="url(#f1044dasxaaa7u)" height="30.2969" style="stroke:#A80036;stroke-width:1.5;" width="120" x="923.5" y="53"/><text fill="#000000" font-family="sans-serif" font-size="14" lengthAdjust="spacing" textLength="106" x="930.5" y="72.9951">Sink Connector</text><text fill="#000000" font-family="sans-serif" font-size="14" lengthAdjust="spacing" textLength="56" x="1156.5" y="84.9951">被调用方</text><ellipse cx="1187.5" cy="15" fill="#FEFECE" filter="url(#f1044dasxaaa7u)" rx="8" ry="8" style="stroke:#A80036;stroke-width:2.0;"/><path d="M1187.5,23 L1187.5,50 M1174.5,31 L1200.5,31 M1187.5,50 L1174.5,65 M1187.5,50 L1200.5,65 " fill="none" filter="url(#f1044dasxaaa7u)" style="stroke:#A80036;stroke-width:2.0;"/><polygon fill="#A80036" points="167,115.4297,177,119.4297,167,123.4297,171,119.4297" style="stroke:#A80036;stroke-width:1.0;"/><line style="stroke:#A80036;stroke-width:1.0;" x1="29" x2="173" y1="119.4297" y2="119.4297"/><text fill="#000000" font-family="sans-serif" font-size="13" font-weight="bold" lengthAdjust="spacing" textLength="9" x="36" y="114.3638">1</text><text fill="#000000" font-family="sans-serif" font-size="13" lengthAdjust="spacing" textLength="104" x="49" y="114.3638">异构通讯适配接入</text><polygon fill="#A80036" points="270.5,144.5625,280.5,148.5625,270.5,152.5625,274.5,148.5625" style="stroke:#A80036;stroke-width:1.0;"/><line style="stroke:#A80036;stroke-width:1.0;" x1="179" x2="276.5" y1="148.5625" y2="148.5625"/><text fill="#000000" font-family="sans-serif" font-size="13" font-weight="bold" lengthAdjust="spacing" textLength="9" x="186" y="143.4966">2</text><text fill="#000000" font-family="sans-serif" font-size="13" lengthAdjust="spacing" textLength="0" x="203" y="143.4966"/><polygon fill="#A80036" points="401.5,173.6953,411.5,177.6953,401.5,181.6953,405.5,177.6953" style="stroke:#A80036;stroke-width:1.0;"/><line style="stroke:#A80036;stroke-width:1.0;" x1="282.5" x2="407.5" y1="177.6953" y2="177.6953"/><text fill="#000000" font-family="sans-serif" font-size="13" font-weight="bold" lengthAdjust="spacing" textLength="9" x="289.5" y="172.6294">3</text><text fill="#000000" font-family="sans-serif" font-size="13" lengthAdjust="spacing" textLength="52" x="302.5" y="172.6294">消息解包</text><line style="stroke:#A80036;stroke-width:1.0;" x1="282.5" x2="324.5" y1="206.8281" y2="206.8281"/><line style="stroke:#A80036;stroke-width:1.0;" x1="324.5" x2="324.5" y1="206.8281" y2="219.8281"/><line style="stroke:#A80036;stroke-width:1.0;" x1="283.5" x2="324.5" y1="219.8281" y2="219.8281"/><polygon fill="#A80036" points="293.5,215.8281,283.5,219.8281,293.5,223.8281,289.5,219.8281" style="stroke:#A80036;stroke-width:1.0;"/><text fill="#000000" font-family="sans-serif" font-size="13" font-weight="bold" lengthAdjust="spacing" textLength="9" x="289.5" y="201.7622">4</text><text fill="#000000" font-family="sans-serif" font-size="13" lengthAdjust="spacing" textLength="104" x="302.5" y="201.7622">选择指定聚合服务</text><polygon fill="#A80036" points="539,244.9609,549,248.9609,539,252.9609,543,248.9609" style="stroke:#A80036;stroke-width:1.0;"/><line style="stroke:#A80036;stroke-width:1.0;" x1="282.5" x2="545" y1="248.9609" y2="248.9609"/><text fill="#000000" font-family="sans-serif" font-size="13" font-weight="bold" lengthAdjust="spacing" textLength="9" x="289.5" y="243.895">5</text><text fill="#000000" font-family="sans-serif" font-size="13" lengthAdjust="spacing" textLength="0" x="306.5" y="243.895"/><line style="stroke:#A80036;stroke-width:1.0;" x1="551" x2="593" y1="278.0938" y2="278.0938"/><line style="stroke:#A80036;stroke-width:1.0;" x1="593" x2="593" y1="278.0938" y2="291.0938"/><line style="stroke:#A80036;stroke-width:1.0;" x1="552" x2="593" y1="291.0938" y2="291.0938"/><polygon fill="#A80036" points="562,287.0938,552,291.0938,562,295.0938,558,291.0938" style="stroke:#A80036;stroke-width:1.0;"/><text fill="#000000" font-family="sans-serif" font-size="13" font-weight="bold" lengthAdjust="spacing" textLength="9" x="558" y="273.0278">6</text><text fill="#000000" font-family="sans-serif" font-size="13" lengthAdjust="spacing" textLength="78" x="571" y="273.0278">服务流程编排</text><polygon fill="#A80036" points="653,316.2266,663,320.2266,653,324.2266,657,320.2266" style="stroke:#A80036;stroke-width:1.0;"/><line style="stroke:#A80036;stroke-width:1.0;" x1="551" x2="659" y1="320.2266" y2="320.2266"/><text fill="#000000" font-family="sans-serif" font-size="13" font-weight="bold" lengthAdjust="spacing" textLength="9" x="558" y="315.1606">7</text><text fill="#000000" font-family="sans-serif" font-size="13" lengthAdjust="spacing" textLength="0" x="575" y="315.1606"/><polygon fill="#A80036" points="736.5,345.3594,746.5,349.3594,736.5,353.3594,740.5,349.3594" style="stroke:#A80036;stroke-width:1.0;"/><line style="stroke:#A80036;stroke-width:1.0;" x1="665" x2="742.5" y1="349.3594" y2="349.3594"/><text fill="#000000" font-family="sans-serif" font-size="13" font-weight="bold" lengthAdjust="spacing" textLength="9" x="672" y="344.2935">8</text><text fill="#000000" font-family="sans-serif" font-size="13" lengthAdjust="spacing" textLength="0" x="689" y="344.2935"/><polygon fill="#A80036" points="842,374.4922,852,378.4922,842,382.4922,846,378.4922" style="stroke:#A80036;stroke-width:1.0;"/><line style="stroke:#A80036;stroke-width:1.0;" x1="748.5" x2="848" y1="378.4922" y2="378.4922"/><text fill="#000000" font-family="sans-serif" font-size="13" font-weight="bold" lengthAdjust="spacing" textLength="9" x="755.5" y="373.4263">9</text><text fill="#000000" font-family="sans-serif" font-size="13" lengthAdjust="spacing" textLength="52" x="768.5" y="373.4263">消息打包</text><polygon fill="#A80036" points="973.5,403.625,983.5,407.625,973.5,411.625,977.5,407.625" style="stroke:#A80036;stroke-width:1.0;"/><line style="stroke:#A80036;stroke-width:1.0;" x1="748.5" x2="979.5" y1="407.625" y2="407.625"/><text fill="#000000" font-family="sans-serif" font-size="13" font-weight="bold" lengthAdjust="spacing" textLength="18" x="755.5" y="402.5591">10</text><text fill="#000000" font-family="sans-serif" font-size="13" lengthAdjust="spacing" textLength="169" x="777.5" y="402.5591">调用配置的服务端协议处理器</text><polygon fill="#A80036" points="1175.5,432.7578,1185.5,436.7578,1175.5,440.7578,1179.5,436.7578" style="stroke:#A80036;stroke-width:1.0;"/><line style="stroke:#A80036;stroke-width:1.0;" x1="985.5" x2="1181.5" y1="436.7578" y2="436.7578"/><text fill="#000000" font-family="sans-serif" font-size="13" font-weight="bold" lengthAdjust="spacing" textLength="18" x="992.5" y="431.6919">11</text><text fill="#000000" font-family="sans-serif" font-size="13" lengthAdjust="spacing" textLength="156" x="1014.5" y="431.6919">被调用方异构通讯适配接入</text><polygon fill="#A80036" points="759.5,461.8906,749.5,465.8906,759.5,469.8906,755.5,465.8906" style="stroke:#A80036;stroke-width:1.0;"/><line style="stroke:#A80036;stroke-width:1.0;" x1="753.5" x2="984.5" y1="465.8906" y2="465.8906"/><text fill="#000000" font-family="sans-serif" font-size="13" font-weight="bold" lengthAdjust="spacing" textLength="18" x="765.5" y="460.8247">12</text><text fill="#000000" font-family="sans-serif" font-size="13" lengthAdjust="spacing" textLength="0" x="791.5" y="460.8247"/><polygon fill="#A80036" points="842,491.0234,852,495.0234,842,499.0234,846,495.0234" style="stroke:#A80036;stroke-width:1.0;"/><line style="stroke:#A80036;stroke-width:1.0;" x1="748.5" x2="848" y1="495.0234" y2="495.0234"/><text fill="#000000" font-family="sans-serif" font-size="13" font-weight="bold" lengthAdjust="spacing" textLength="18" x="755.5" y="489.9575">13</text><text fill="#000000" font-family="sans-serif" font-size="13" lengthAdjust="spacing" textLength="52" x="777.5" y="489.9575">消息解包</text><polygon fill="#A80036" points="676,520.1563,666,524.1563,676,528.1563,672,524.1563" style="stroke:#A80036;stroke-width:1.0;"/><line style="stroke:#A80036;stroke-width:1.0;" x1="670" x2="747.5" y1="524.1563" y2="524.1563"/><text fill="#000000" font-family="sans-serif" font-size="13" font-weight="bold" lengthAdjust="spacing" textLength="18" x="682" y="519.0903">14</text><text fill="#000000" font-family="sans-serif" font-size="13" lengthAdjust="spacing" textLength="0" x="708" y="519.0903"/><polygon fill="#A80036" points="562,549.2891,552,553.2891,562,557.2891,558,553.2891" style="stroke:#A80036;stroke-width:1.0;"/><line style="stroke:#A80036;stroke-width:1.0;" x1="556" x2="664" y1="553.2891" y2="553.2891"/><text fill="#000000" font-family="sans-serif" font-size="13" font-weight="bold" lengthAdjust="spacing" textLength="18" x="568" y="548.2231">15</text><text fill="#000000" font-family="sans-serif" font-size="13" lengthAdjust="spacing" textLength="0" x="594" y="548.2231"/><line style="stroke:#A80036;stroke-width:1.0;" x1="551" x2="593" y1="582.4219" y2="582.4219"/><line style="stroke:#A80036;stroke-width:1.0;" x1="593" x2="593" y1="582.4219" y2="595.4219"/><line style="stroke:#A80036;stroke-width:1.0;" x1="552" x2="593" y1="595.4219" y2="595.4219"/><polygon fill="#A80036" points="562,591.4219,552,595.4219,562,599.4219,558,595.4219" style="stroke:#A80036;stroke-width:1.0;"/><text fill="#000000" font-family="sans-serif" font-size="13" font-weight="bold" lengthAdjust="spacing" textLength="18" x="558" y="577.356">16</text><text fill="#000000" font-family="sans-serif" font-size="13" lengthAdjust="spacing" textLength="78" x="580" y="577.356">服务流程编排</text><polygon fill="#A80036" points="293.5,620.5547,283.5,624.5547,293.5,628.5547,289.5,624.5547" style="stroke:#A80036;stroke-width:1.0;"/><line style="stroke:#A80036;stroke-width:1.0;" x1="287.5" x2="550" y1="624.5547" y2="624.5547"/><text fill="#000000" font-family="sans-serif" font-size="13" font-weight="bold" lengthAdjust="spacing" textLength="18" x="299.5" y="619.4888">17</text><text fill="#000000" font-family="sans-serif" font-size="13" lengthAdjust="spacing" textLength="0" x="325.5" y="619.4888"/><polygon fill="#A80036" points="401.5,649.6875,411.5,653.6875,401.5,657.6875,405.5,653.6875" style="stroke:#A80036;stroke-width:1.0;"/><line style="stroke:#A80036;stroke-width:1.0;" x1="282.5" x2="407.5" y1="653.6875" y2="653.6875"/><text fill="#000000" font-family="sans-serif" font-size="13" font-weight="bold" lengthAdjust="spacing" textLength="18" x="289.5" y="648.6216">18</text><text fill="#000000" font-family="sans-serif" font-size="13" lengthAdjust="spacing" textLength="52" x="311.5" y="648.6216">消息打包</text><polygon fill="#A80036" points="190,678.8203,180,682.8203,190,686.8203,186,682.8203" style="stroke:#A80036;stroke-width:1.0;"/><line style="stroke:#A80036;stroke-width:1.0;" x1="184" x2="281.5" y1="682.8203" y2="682.8203"/><text fill="#000000" font-family="sans-serif" font-size="13" font-weight="bold" lengthAdjust="spacing" textLength="18" x="196" y="677.7544">19</text><text fill="#000000" font-family="sans-serif" font-size="13" lengthAdjust="spacing" textLength="0" x="222" y="677.7544"/><polygon fill="#A80036" points="40,707.9531,30,711.9531,40,715.9531,36,711.9531" style="stroke:#A80036;stroke-width:1.0;"/><line style="stroke:#A80036;stroke-width:1.0;" x1="34" x2="178" y1="711.9531" y2="711.9531"/><text fill="#000000" font-family="sans-serif" font-size="13" font-weight="bold" lengthAdjust="spacing" textLength="18" x="46" y="706.8872">20</text><text fill="#000000" font-family="sans-serif" font-size="13" lengthAdjust="spacing" textLength="104" x="68" y="706.8872">异构通讯适配接入</text></g></svg>