<?xml version="1.0" encoding="UTF-8" standalone="no"?><svg xmlns="http://www.w3.org/2000/svg" xmlns:xlink="http://www.w3.org/1999/xlink" contentScriptType="application/ecmascript" contentStyleType="text/css" height="105px" preserveAspectRatio="none" style="width:1253px;height:105px;" version="1.1" viewBox="0 0 1253 105" width="1253px" zoomAndPan="magnify"><defs><filter height="300%" id="flthmkab2lw9j" width="300%" x="-1" y="-1"><feGaussianBlur result="blurOut" stdDeviation="2.0"/><feColorMatrix in="blurOut" result="blurOut2" type="matrix" values="0 0 0 0 0 0 0 0 0 0 0 0 0 0 0 0 0 0 .4 0"/><feOffset dx="4.0" dy="4.0" in="blurOut2" result="blurOut3"/><feBlend in="SourceGraphic" in2="blurOut3" mode="normal"/></filter></defs><g><ellipse cx="34" cy="16.5659" fill="#FEFECE" filter="url(#flthmkab2lw9j)" rx="8" ry="8" style="stroke:#A80036;stroke-width:1.5;"/><path d="M34,24.5659 L34,51.5659 M21,32.5659 L47,32.5659 M34,51.5659 L21,66.5659 M34,51.5659 L47,66.5659 " fill="none" filter="url(#flthmkab2lw9j)" style="stroke:#A80036;stroke-width:1.5;"/><text fill="#000000" font-family="sans-serif" font-size="14" lengthAdjust="spacing" textLength="56" x="6" y="85.061">服务发起</text><ellipse cx="169" cy="47.5659" fill="#FEFECE" filter="url(#flthmkab2lw9j)" rx="8" ry="8" style="stroke:#A80036;stroke-width:1.5;"/><text fill="#000000" font-family="sans-serif" font-size="14" lengthAdjust="spacing" textLength="77" x="130.5" y="77.561">开放API接口</text><rect fill="#FEFECE" filter="url(#flthmkab2lw9j)" height="22.2969" style="stroke:#000000;stroke-width:1.5;" width="87" x="385" y="36.5659"/><text fill="#000000" font-family="sans-serif" font-size="14" lengthAdjust="spacing" textLength="67" x="395" y="52.561">Integrator</text><rect fill="#FEFECE" filter="url(#flthmkab2lw9j)" height="38.5938" style="stroke:#000000;stroke-width:1.5;" width="166" x="586" y="28.0659"/><text fill="#000000" font-family="sans-serif" font-size="14" lengthAdjust="spacing" textLength="146" x="596" y="44.061">聚合服务(SpringBean)</text><text fill="#000000" font-family="sans-serif" font-size="14" lengthAdjust="spacing" textLength="126" x="596" y="60.3579">IntegratorService5</text><rect fill="#FEFECE" filter="url(#flthmkab2lw9j)" height="38.5938" style="stroke:#000000;stroke-width:1.5;" width="185" x="1056" y="28.0659"/><text fill="#000000" font-family="sans-serif" font-size="14" lengthAdjust="spacing" textLength="146" x="1066" y="44.061">聚合服务(SpringBean)</text><text fill="#000000" font-family="sans-serif" font-size="14" lengthAdjust="spacing" textLength="165" x="1066" y="60.3579">SinkClientInterface1Impl</text><path d="M62.3004,47.5659 C90.526,47.5659 132.7459,47.5659 154.6543,47.5659 " fill="none" id="服务发起-to-开放API接口" style="stroke:#A80036;stroke-width:1.0;"/><polygon fill="#A80036" points="159.7657,47.5659,150.7657,43.5659,154.7657,47.5659,150.7657,51.5659,159.7657,47.5659" style="stroke:#A80036;stroke-width:1.0;"/><path d="M178.2357,47.5659 C209.9822,47.5659 316.1555,47.5659 379.5582,47.5659 " fill="none" id="开放API接口-to-Integrator" style="stroke:#A80036;stroke-width:1.0;"/><polygon fill="#A80036" points="384.8014,47.5659,375.8014,43.5659,379.8014,47.5659,375.8014,51.5659,384.8014,47.5659" style="stroke:#A80036;stroke-width:1.0;"/><text fill="#000000" font-family="sans-serif" font-size="13" lengthAdjust="spacing" textLength="108" x="246" y="43.6328">/sample/service5</text><path d="M472.0527,47.5659 C502.2428,47.5659 543.5023,47.5659 580.4588,47.5659 " fill="none" id="Integrator-to-service5" style="stroke:#A80036;stroke-width:1.0;"/><polygon fill="#A80036" points="585.8784,47.5659,576.8784,43.5659,580.8784,47.5659,576.8784,51.5659,585.8784,47.5659" style="stroke:#A80036;stroke-width:1.0;"/><text fill="#000000" font-family="sans-serif" font-size="13" lengthAdjust="spacing" textLength="52" x="503" y="43.6328">服务调用</text><path d="M752.1316,32.7983 C762.1674,31.4674 772.2963,30.334 782,29.5659 C890.1064,21.0096 917.844,21.6622 1026,29.5659 C1033.9892,30.1498 1042.2483,30.945 1050.5293,31.8778 " fill="none" id="service5-to-delayservice1" style="stroke:#A80036;stroke-width:1.0;"/><polygon fill="#A80036" points="1055.6861,32.4757,1047.2067,27.4658,1050.7194,31.8999,1046.2853,35.4126,1055.6861,32.4757" style="stroke:#A80036;stroke-width:1.0;"/><text fill="#000000" font-family="sans-serif" font-size="13" lengthAdjust="spacing" textLength="242" x="783" y="19.6328">delayServiceClient.notify（）（第1次）</text><path d="M752.2827,53.3105 C762.292,53.8277 772.3733,54.2681 782,54.5659 C890.3926,57.92 917.5997,57.6606 1026,54.5659 C1034.0233,54.3369 1042.3385,54.0236 1050.686,53.6559 " fill="none" id="service5-to-delayservice1-1" style="stroke:#A80036;stroke-width:1.0;"/><polygon fill="#A80036" points="1055.8853,53.4201,1046.7133,49.8321,1050.8904,53.6467,1047.0758,57.8238,1055.8853,53.4201" style="stroke:#A80036;stroke-width:1.0;"/><text fill="#000000" font-family="sans-serif" font-size="13" lengthAdjust="spacing" textLength="242" x="783" y="50.6328">delayServiceClient.notify（）（第2次）</text><path d="M720.556,67.1078 C739.5754,73.3599 761.4906,79.4624 782,82.5659 C889.2238,98.7912 918.6037,97.6073 1026,82.5659 C1046.3952,79.7095 1068.1594,74.3009 1087.5988,68.5746 " fill="none" id="service5-to-delayservice1-2" style="stroke:#A80036;stroke-width:1.0;"/><polygon fill="#A80036" points="1092.4886,67.1132,1082.7201,65.8578,1087.698,68.5449,1085.0109,73.5228,1092.4886,67.1132" style="stroke:#A80036;stroke-width:1.0;"/><text fill="#000000" font-family="sans-serif" font-size="13" lengthAdjust="spacing" textLength="24" x="892" y="78.6328">......</text></g></svg>