<?xml version="1.0" encoding="UTF-8" standalone="no"?><svg xmlns="http://www.w3.org/2000/svg" xmlns:xlink="http://www.w3.org/1999/xlink" contentScriptType="application/ecmascript" contentStyleType="text/css" height="150px" preserveAspectRatio="none" style="width:419px;height:150px;" version="1.1" viewBox="0 0 419 150" width="419px" zoomAndPan="magnify"><defs><filter height="300%" id="f7exbdxuhwwoz" width="300%" x="-1" y="-1"><feGaussianBlur result="blurOut" stdDeviation="2.0"/><feColorMatrix in="blurOut" result="blurOut2" type="matrix" values="0 0 0 0 0 0 0 0 0 0 0 0 0 0 0 0 0 0 .4 0"/><feOffset dx="4.0" dy="4.0" in="blurOut2" result="blurOut3"/><feBlend in="SourceGraphic" in2="blurOut3" mode="normal"/></filter></defs><g><ellipse cx="43.5" cy="74" fill="#FEFECE" filter="url(#f7exbdxuhwwoz)" rx="8" ry="8" style="stroke:#A80036;stroke-width:1.5;"/><path d="M43.5,82 L43.5,109 M30.5,90 L56.5,90 M43.5,109 L30.5,124 M43.5,109 L56.5,124 " fill="none" filter="url(#f7exbdxuhwwoz)" style="stroke:#A80036;stroke-width:1.5;"/><text fill="#000000" font-family="sans-serif" font-size="14" lengthAdjust="spacing" textLength="56" x="15.5" y="142.4951">服务发起</text><rect fill="#FEFECE" filter="url(#f7exbdxuhwwoz)" height="22.2969" style="stroke:#000000;stroke-width:1.5;" width="87" x="226" y="94"/><text fill="#000000" font-family="sans-serif" font-size="14" lengthAdjust="spacing" textLength="67" x="236" y="109.9951">Integrator</text><rect fill="#FEFECE" filter="url(#f7exbdxuhwwoz)" height="22.2969" style="stroke:#000000;stroke-width:1.5;" width="73" x="7" y="7"/><text fill="#000000" font-family="sans-serif" font-size="14" lengthAdjust="spacing" textLength="53" x="17" y="22.9951">Server1</text><ellipse cx="393" cy="74" fill="#FEFECE" filter="url(#f7exbdxuhwwoz)" rx="8" ry="8" style="stroke:#A80036;stroke-width:1.5;"/><path d="M393,82 L393,109 M380,90 L406,90 M393,109 L380,124 M393,109 L406,124 " fill="none" filter="url(#f7exbdxuhwwoz)" style="stroke:#A80036;stroke-width:1.5;"/><text fill="#000000" font-family="sans-serif" font-size="14" lengthAdjust="spacing" textLength="38" x="374" y="142.4951">Sink1</text><path d="M71.6661,105 C108.9231,105 175.1748,105 220.6693,105 " fill="none" id="服务发起-to-Integrator" style="stroke:#A80036;stroke-width:1.0;"/><polygon fill="#A80036" points="225.8339,105,216.8339,101,220.8339,105,216.8339,109,225.8339,105" style="stroke:#A80036;stroke-width:1.0;"/><text fill="#000000" font-family="sans-serif" font-size="13" lengthAdjust="spacing" textLength="84" x="111" y="101.0669">Open API接口</text><path d="M313.0415,105 C331.7594,105 352.9286,105 368.7811,105 " fill="none" id="Integrator-to-Sink1" style="stroke:#A80036;stroke-width:1.0;"/><polygon fill="#A80036" points="373.9421,105,364.9421,101,368.9421,105,364.9421,109,373.9421,105" style="stroke:#A80036;stroke-width:1.0;"/></g></svg>