<?xml version="1.0" encoding="UTF-8" standalone="no"?><svg xmlns="http://www.w3.org/2000/svg" xmlns:xlink="http://www.w3.org/1999/xlink" contentScriptType="application/ecmascript" contentStyleType="text/css" height="96px" preserveAspectRatio="none" style="width:1001px;height:96px;" version="1.1" viewBox="0 0 1001 96" width="1001px" zoomAndPan="magnify"><defs><filter height="300%" id="f1sgv0zfbfgkix" width="300%" x="-1" y="-1"><feGaussianBlur result="blurOut" stdDeviation="2.0"/><feColorMatrix in="blurOut" result="blurOut2" type="matrix" values="0 0 0 0 0 0 0 0 0 0 0 0 0 0 0 0 0 0 .4 0"/><feOffset dx="4.0" dy="4.0" in="blurOut2" result="blurOut3"/><feBlend in="SourceGraphic" in2="blurOut3" mode="normal"/></filter></defs><g><ellipse cx="34" cy="14" fill="#FEFECE" filter="url(#f1sgv0zfbfgkix)" rx="8" ry="8" style="stroke:#A80036;stroke-width:1.5;"/><path d="M34,22 L34,49 M21,30 L47,30 M34,49 L21,64 M34,49 L47,64 " fill="none" filter="url(#f1sgv0zfbfgkix)" style="stroke:#A80036;stroke-width:1.5;"/><text fill="#000000" font-family="sans-serif" font-size="14" lengthAdjust="spacing" textLength="56" x="6" y="82.4951">服务发起</text><ellipse cx="169" cy="45" fill="#FEFECE" filter="url(#f1sgv0zfbfgkix)" rx="8" ry="8" style="stroke:#A80036;stroke-width:1.5;"/><text fill="#000000" font-family="sans-serif" font-size="14" lengthAdjust="spacing" textLength="77" x="130.5" y="74.9951">开放API接口</text><rect fill="#FEFECE" filter="url(#f1sgv0zfbfgkix)" height="22.2969" style="stroke:#000000;stroke-width:1.5;" width="87" x="276" y="34"/><text fill="#000000" font-family="sans-serif" font-size="14" lengthAdjust="spacing" textLength="67" x="286" y="49.9951">Integrator</text><rect fill="#FEFECE" filter="url(#f1sgv0zfbfgkix)" height="38.5938" style="stroke:#000000;stroke-width:1.5;" width="138" x="477" y="25.5"/><text fill="#000000" font-family="sans-serif" font-size="14" lengthAdjust="spacing" textLength="56" x="487" y="41.4951">聚合服务</text><text fill="#000000" font-family="sans-serif" font-size="14" lengthAdjust="spacing" textLength="118" x="487" y="57.792">/sample/service4</text><rect fill="#FEFECE" filter="url(#f1sgv0zfbfgkix)" height="38.5938" style="stroke:#000000;stroke-width:1.5;" width="174" x="815" y="25.5"/><text fill="#000000" font-family="sans-serif" font-size="14" lengthAdjust="spacing" textLength="56" x="825" y="41.4951">聚合服务</text><text fill="#000000" font-family="sans-serif" font-size="14" lengthAdjust="spacing" textLength="154" x="825" y="57.792">/sample/delayservice1</text><path d="M62.3004,45 C90.526,45 132.7459,45 154.6543,45 " fill="none" id="服务发起-to-开放API接口" style="stroke:#A80036;stroke-width:1.0;"/><polygon fill="#A80036" points="159.7657,45,150.7657,41,154.7657,45,150.7657,49,159.7657,45" style="stroke:#A80036;stroke-width:1.0;"/><path d="M178.4144,45 C196.5564,45 237.4945,45 270.6243,45 " fill="none" id="开放API接口-to-Integrator" style="stroke:#A80036;stroke-width:1.0;"/><polygon fill="#A80036" points="275.8697,45,266.8697,41,270.8697,45,266.8697,49,275.8697,45" style="stroke:#A80036;stroke-width:1.0;"/><path d="M363.1715,45 C393.8028,45 435.5219,45 471.3739,45 " fill="none" id="Integrator-to-service4" style="stroke:#A80036;stroke-width:1.0;"/><polygon fill="#A80036" points="476.619,45,467.619,41,471.619,45,467.619,49,476.619,45" style="stroke:#A80036;stroke-width:1.0;"/><text fill="#000000" font-family="sans-serif" font-size="13" lengthAdjust="spacing" textLength="52" x="394" y="41.0669">服务调用</text><path d="M615.0202,30.8158 C625.0388,29.234 635.2567,27.8785 645,27 C706.9708,21.4121 722.9589,22.2555 785,27 C793.0606,27.6164 801.4064,28.4684 809.7596,29.4689 " fill="none" id="service4-to-delayservice1" style="stroke:#A80036;stroke-width:1.0;"/><polygon fill="#A80036" points="814.9591,30.1104,806.5167,25.0384,809.9967,29.4981,805.537,32.9782,814.9591,30.1104" style="stroke:#A80036;stroke-width:1.0;"/><text fill="#000000" font-family="sans-serif" font-size="13" lengthAdjust="spacing" textLength="138" x="646" y="20.0669">调用延迟服务（第1次）</text><path d="M615.2038,50.5182 C625.1955,51.133 635.357,51.6595 645,52 C707.1835,54.1956 722.8056,53.8588 785,52 C793.0008,51.7609 801.3053,51.4299 809.6312,51.0411 " fill="none" id="service4-to-delayservice1-1" style="stroke:#A80036;stroke-width:1.0;"/><polygon fill="#A80036" points="814.8155,50.7918,805.6338,47.2287,809.8213,51.0319,806.018,55.2194,814.8155,50.7918" style="stroke:#A80036;stroke-width:1.0;"/><text fill="#000000" font-family="sans-serif" font-size="13" lengthAdjust="spacing" textLength="138" x="646" y="48.0669">调用延迟服务（第2次）</text><path d="M592.5096,64.5161 C608.8086,70.3978 627.4337,76.0676 645,79 C706.373,89.2451 723.3988,87.7692 785,79 C803.7591,76.3295 823.7156,71.365 841.7346,66.0388 " fill="none" id="service4-to-delayservice1-2" style="stroke:#A80036;stroke-width:1.0;"/><polygon fill="#A80036" points="846.7629,64.5285,836.9927,63.2865,841.9742,65.9668,839.2939,70.9483,846.7629,64.5285" style="stroke:#A80036;stroke-width:1.0;"/><text fill="#000000" font-family="sans-serif" font-size="13" lengthAdjust="spacing" textLength="24" x="703" y="75.0669">......</text></g></svg>