<?xml version="1.0" encoding="UTF-8" standalone="no"?><svg xmlns="http://www.w3.org/2000/svg" xmlns:xlink="http://www.w3.org/1999/xlink" contentScriptType="application/ecmascript" contentStyleType="text/css" height="90px" preserveAspectRatio="none" style="width:534px;height:90px;" version="1.1" viewBox="0 0 534 90" width="534px" zoomAndPan="magnify"><defs><filter height="300%" id="f9utibvvupjce" width="300%" x="-1" y="-1"><feGaussianBlur result="blurOut" stdDeviation="2.0"/><feColorMatrix in="blurOut" result="blurOut2" type="matrix" values="0 0 0 0 0 0 0 0 0 0 0 0 0 0 0 0 0 0 .4 0"/><feOffset dx="4.0" dy="4.0" in="blurOut2" result="blurOut3"/><feBlend in="SourceGraphic" in2="blurOut3" mode="normal"/></filter></defs><g><ellipse cx="34" cy="14" fill="#FEFECE" filter="url(#f9utibvvupjce)" rx="8" ry="8" style="stroke:#A80036;stroke-width:1.5;"/><path d="M34,22 L34,49 M21,30 L47,30 M34,49 L21,64 M34,49 L47,64 " fill="none" filter="url(#f9utibvvupjce)" style="stroke:#A80036;stroke-width:1.5;"/><text fill="#000000" font-family="sans-serif" font-size="14" lengthAdjust="spacing" textLength="56" x="6" y="82.4951">服务发起</text><rect fill="#FEFECE" filter="url(#f9utibvvupjce)" height="22.2969" style="stroke:#000000;stroke-width:1.5;" width="77" x="123" y="34"/><text fill="#000000" font-family="sans-serif" font-size="14" lengthAdjust="spacing" textLength="57" x="133" y="49.9951">source3</text><rect fill="#FEFECE" filter="url(#f9utibvvupjce)" height="22.2969" style="stroke:#000000;stroke-width:1.5;" width="87" x="261" y="34"/><text fill="#000000" font-family="sans-serif" font-size="14" lengthAdjust="spacing" textLength="67" x="271" y="49.9951">Integrator</text><rect fill="#FEFECE" filter="url(#f9utibvvupjce)" height="22.2969" style="stroke:#000000;stroke-width:1.5;" width="58" x="464" y="34"/><text fill="#000000" font-family="sans-serif" font-size="14" lengthAdjust="spacing" textLength="38" x="474" y="49.9951">Sink7</text><path d="M62.2964,45 C78.5248,45 99.2476,45 117.5522,45 " fill="none" id="服务发起-to-source3" style="stroke:#A80036;stroke-width:1.0;"/><polygon fill="#A80036" points="122.6452,45,113.6452,41,117.6452,45,113.6452,49,122.6452,45" style="stroke:#A80036;stroke-width:1.0;"/><path d="M200.1979,45 C217.3606,45 237.7426,45 255.9159,45 " fill="none" id="source3-to-Integrator" style="stroke:#A80036;stroke-width:1.0;"/><polygon fill="#A80036" points="260.9787,45,251.9787,41,255.9787,45,251.9787,49,260.9787,45" style="stroke:#A80036;stroke-width:1.0;"/><path d="M348.2195,45 C381.8389,45 427.6368,45 458.6533,45 " fill="none" id="Integrator-to-Sink7" style="stroke:#A80036;stroke-width:1.0;"/><polygon fill="#A80036" points="463.8827,45,454.8827,41,458.8827,45,454.8827,49,463.8827,45" style="stroke:#A80036;stroke-width:1.0;"/><text fill="#000000" font-family="sans-serif" font-size="13" lengthAdjust="spacing" textLength="54" x="379" y="41.0669">ISO8583</text></g></svg>