<?xml version="1.0" encoding="UTF-8" standalone="no"?><svg xmlns="http://www.w3.org/2000/svg" xmlns:xlink="http://www.w3.org/1999/xlink" contentScriptType="application/ecmascript" contentStyleType="text/css" height="90px" preserveAspectRatio="none" style="width:390px;height:90px;" version="1.1" viewBox="0 0 390 90" width="390px" zoomAndPan="magnify"><defs><filter height="300%" id="f1fh2n3nxlq99s" width="300%" x="-1" y="-1"><feGaussianBlur result="blurOut" stdDeviation="2.0"/><feColorMatrix in="blurOut" result="blurOut2" type="matrix" values="0 0 0 0 0 0 0 0 0 0 0 0 0 0 0 0 0 0 .4 0"/><feOffset dx="4.0" dy="4.0" in="blurOut2" result="blurOut3"/><feBlend in="SourceGraphic" in2="blurOut3" mode="normal"/></filter></defs><g><ellipse cx="34" cy="14" fill="#FEFECE" filter="url(#f1fh2n3nxlq99s)" rx="8" ry="8" style="stroke:#A80036;stroke-width:1.5;"/><path d="M34,22 L34,49 M21,30 L47,30 M34,49 L21,64 M34,49 L47,64 " fill="none" filter="url(#f1fh2n3nxlq99s)" style="stroke:#A80036;stroke-width:1.5;"/><text fill="#000000" font-family="sans-serif" font-size="14" lengthAdjust="spacing" textLength="56" x="6" y="82.4951">服务发起</text><rect fill="#FEFECE" filter="url(#f1fh2n3nxlq99s)" height="22.2969" style="stroke:#000000;stroke-width:1.5;" width="109" x="122" y="34"/><text fill="#000000" font-family="sans-serif" font-size="14" lengthAdjust="spacing" textLength="89" x="132" y="49.9951">Netty Source</text><rect fill="#FEFECE" filter="url(#f1fh2n3nxlq99s)" height="22.2969" style="stroke:#000000;stroke-width:1.5;" width="87" x="291" y="34"/><text fill="#000000" font-family="sans-serif" font-size="14" lengthAdjust="spacing" textLength="67" x="301" y="49.9951">Integrator</text><path d="M62.1534,45 C77.7229,45 97.6903,45 116.5695,45 " fill="none" id="服务发起-to-Source11" style="stroke:#A80036;stroke-width:1.0;"/><polygon fill="#A80036" points="121.861,45,112.861,41,116.861,45,112.861,49,121.861,45" style="stroke:#A80036;stroke-width:1.0;"/><path d="M231.3173,45 C249.0067,45 268.4863,45 285.7102,45 " fill="none" id="Source11-to-Integrator" style="stroke:#A80036;stroke-width:1.0;"/><polygon fill="#A80036" points="290.9787,45,281.9787,41,285.9787,45,281.9787,49,290.9787,45" style="stroke:#A80036;stroke-width:1.0;"/></g></svg>