<?xml version="1.0" encoding="UTF-8" standalone="no"?><svg xmlns="http://www.w3.org/2000/svg" xmlns:xlink="http://www.w3.org/1999/xlink" contentScriptType="application/ecmascript" contentStyleType="text/css" height="90px" preserveAspectRatio="none" style="width:477px;height:90px;" version="1.1" viewBox="0 0 477 90" width="477px" zoomAndPan="magnify"><defs><filter height="300%" id="f15yys61ms2jpr" width="300%" x="-1" y="-1"><feGaussianBlur result="blurOut" stdDeviation="2.0"/><feColorMatrix in="blurOut" result="blurOut2" type="matrix" values="0 0 0 0 0 0 0 0 0 0 0 0 0 0 0 0 0 0 .4 0"/><feOffset dx="4.0" dy="4.0" in="blurOut2" result="blurOut3"/><feBlend in="SourceGraphic" in2="blurOut3" mode="normal"/></filter></defs><g><ellipse cx="34" cy="14" fill="#FEFECE" filter="url(#f15yys61ms2jpr)" rx="8" ry="8" style="stroke:#A80036;stroke-width:1.5;"/><path d="M34,22 L34,49 M21,30 L47,30 M34,49 L21,64 M34,49 L47,64 " fill="none" filter="url(#f15yys61ms2jpr)" style="stroke:#A80036;stroke-width:1.5;"/><text fill="#000000" font-family="sans-serif" font-size="14" lengthAdjust="spacing" textLength="56" x="6" y="82.4951">服务发起</text><rect fill="#FEFECE" filter="url(#f15yys61ms2jpr)" height="22.2969" style="stroke:#000000;stroke-width:1.5;" width="78" x="122" y="34"/><text fill="#000000" font-family="sans-serif" font-size="14" lengthAdjust="spacing" textLength="58" x="132" y="49.9951">Source1</text><rect fill="#FEFECE" filter="url(#f15yys61ms2jpr)" height="22.2969" style="stroke:#000000;stroke-width:1.5;" width="87" x="260" y="34"/><text fill="#000000" font-family="sans-serif" font-size="14" lengthAdjust="spacing" textLength="67" x="270" y="49.9951">Integrator</text><rect fill="#FEFECE" filter="url(#f15yys61ms2jpr)" height="22.2969" style="stroke:#000000;stroke-width:1.5;" width="58" x="407" y="34"/><text fill="#000000" font-family="sans-serif" font-size="14" lengthAdjust="spacing" textLength="38" x="417" y="49.9951">Sink1</text><path d="M62.1854,45 C78.2166,45 98.6509,45 116.772,45 " fill="none" id="服务发起-to-Source1" style="stroke:#A80036;stroke-width:1.0;"/><polygon fill="#A80036" points="121.8162,45,112.8162,41,116.8162,45,112.8162,49,121.8162,45" style="stroke:#A80036;stroke-width:1.0;"/><path d="M200.316,45 C217.0393,45 236.7221,45 254.3887,45 " fill="none" id="Source1-to-Integrator" style="stroke:#A80036;stroke-width:1.0;"/><polygon fill="#A80036" points="259.8012,45,250.8012,41,254.8012,45,250.8012,49,259.8012,45" style="stroke:#A80036;stroke-width:1.0;"/><path d="M347.2527,45 C365.014,45 385.2233,45 401.8658,45 " fill="none" id="Integrator-to-Sink1" style="stroke:#A80036;stroke-width:1.0;"/><polygon fill="#A80036" points="406.9095,45,397.9095,41,401.9095,45,397.9095,49,406.9095,45" style="stroke:#A80036;stroke-width:1.0;"/></g></svg>