<?xml version="1.0" encoding="UTF-8" standalone="no"?><svg xmlns="http://www.w3.org/2000/svg" xmlns:xlink="http://www.w3.org/1999/xlink" contentScriptType="application/ecmascript" contentStyleType="text/css" height="185px" preserveAspectRatio="none" style="width:1396px;height:185px;" version="1.1" viewBox="0 0 1396 185" width="1396px" zoomAndPan="magnify"><defs><filter height="300%" id="fklygbbj27ui" width="300%" x="-1" y="-1"><feGaussianBlur result="blurOut" stdDeviation="2.0"/><feColorMatrix in="blurOut" result="blurOut2" type="matrix" values="0 0 0 0 0 0 0 0 0 0 0 0 0 0 0 0 0 0 .4 0"/><feOffset dx="4.0" dy="4.0" in="blurOut2" result="blurOut3"/><feBlend in="SourceGraphic" in2="blurOut3" mode="normal"/></filter></defs><g><ellipse cx="34" cy="57.5659" fill="#FEFECE" filter="url(#fklygbbj27ui)" rx="8" ry="8" style="stroke:#A80036;stroke-width:1.5;"/><path d="M34,65.5659 L34,92.5659 M21,73.5659 L47,73.5659 M34,92.5659 L21,107.5659 M34,92.5659 L47,107.5659 " fill="none" filter="url(#fklygbbj27ui)" style="stroke:#A80036;stroke-width:1.5;"/><text fill="#000000" font-family="sans-serif" font-size="14" lengthAdjust="spacing" textLength="56" x="6" y="126.061">服务发起</text><ellipse cx="132" cy="88.5659" fill="#FEFECE" filter="url(#fklygbbj27ui)" rx="8" ry="8" style="stroke:#A80036;stroke-width:1.5;"/><text fill="#000000" font-family="sans-serif" font-size="14" lengthAdjust="spacing" textLength="77" x="93.5" y="118.561">开放API接口</text><rect fill="#FEFECE" filter="url(#fklygbbj27ui)" height="22.2969" style="stroke:#000000;stroke-width:1.5;" width="87" x="390" y="77.5659"/><text fill="#000000" font-family="sans-serif" font-size="14" lengthAdjust="spacing" textLength="67" x="400" y="93.561">Integrator</text><rect fill="#FEFECE" filter="url(#fklygbbj27ui)" height="38.5938" style="stroke:#000000;stroke-width:1.5;" width="185" x="591" y="69.0659"/><text fill="#000000" font-family="sans-serif" font-size="14" lengthAdjust="spacing" textLength="86" x="601" y="85.061">Spring容器类</text><text fill="#000000" font-family="sans-serif" font-size="14" lengthAdjust="spacing" textLength="165" x="601" y="101.3579">SinkClientInterface1Impl</text><rect fill="#FEFECE" filter="url(#fklygbbj27ui)" height="22.2969" style="stroke:#000000;stroke-width:1.5;" width="66" x="974" y="77.5659"/><text fill="#000000" font-family="sans-serif" font-size="14" lengthAdjust="spacing" textLength="46" x="984" y="93.561">sink12</text><rect fill="#FEFECE" filter="url(#fklygbbj27ui)" height="38.5938" style="stroke:#000000;stroke-width:1.5;" width="146" x="1238" y="69.0659"/><text fill="#000000" font-family="sans-serif" font-size="14" lengthAdjust="spacing" textLength="86" x="1248" y="85.061">Spring容器类</text><text fill="#000000" font-family="sans-serif" font-size="14" lengthAdjust="spacing" textLength="126" x="1248" y="101.3579">SinkInterface1Impl</text><path d="M62.0829,88.5659 C80.0584,88.5659 102.6574,88.5659 117.214,88.5659 " fill="none" id="服务发起-to-开放API接口" style="stroke:#A80036;stroke-width:1.0;"/><polygon fill="#A80036" points="122.5561,88.5659,113.5561,84.5659,117.5561,88.5659,113.5561,92.5659,122.5561,88.5659" style="stroke:#A80036;stroke-width:1.0;"/><path d="M139.532,79.2616 C146.6664,71.2517 158.1744,60.264 171,55.5659 C249.8748,26.6734 277.863,37.9729 360,55.5659 C377.5722,59.3297 396.0188,67.6272 410.0364,74.9599 " fill="none" id="开放API接口-to-Integrator" style="stroke:#A80036;stroke-width:1.0;"/><polygon fill="#A80036" points="414.6127,77.4017,408.5552,69.636,410.2013,75.048,404.7893,76.6942,414.6127,77.4017" style="stroke:#A80036;stroke-width:1.0;"/><text fill="#000000" font-family="sans-serif" font-size="13" lengthAdjust="spacing" textLength="75" x="228" y="19.6328">/springbean</text><text fill="#000000" font-family="sans-serif" font-size="13" lengthAdjust="spacing" textLength="132" x="199.5" y="34.7656">method=doService1</text><path d="M141.2358,90.7018 C149.099,92.4048 160.7221,94.6508 171,95.5659 C254.669,103.0151 276.0946,99.5524 360,95.5659 C367.9523,95.1881 376.3723,94.5815 384.5649,93.8795 " fill="none" id="开放API接口-to-Integrator-1" style="stroke:#A80036;stroke-width:1.0;"/><polygon fill="#A80036" points="389.6303,93.4313,380.3127,90.2404,384.6498,93.8722,381.018,98.2093,389.6303,93.4313" style="stroke:#A80036;stroke-width:1.0;"/><text fill="#000000" font-family="sans-serif" font-size="13" lengthAdjust="spacing" textLength="75" x="228" y="76.6328">/springbean</text><text fill="#000000" font-family="sans-serif" font-size="13" lengthAdjust="spacing" textLength="132" x="199.5" y="91.7656">method=doService2</text><path d="M135.6517,97.6046 C141.1969,109.9519 153.0338,131.5828 171,140.5659 C246.1319,178.1318 279.9495,166.02 360,140.5659 C382.8748,133.2923 404.7536,116.034 418.6005,103.387 " fill="none" id="开放API接口-to-Integrator-2" style="stroke:#A80036;stroke-width:1.0;"/><polygon fill="#A80036" points="422.2871,99.9543,412.9746,103.16,418.6278,103.3616,418.4262,109.0149,422.2871,99.9543" style="stroke:#A80036;stroke-width:1.0;"/><text fill="#000000" font-family="sans-serif" font-size="13" lengthAdjust="spacing" textLength="75" x="228" y="121.6328">/springbean</text><text fill="#000000" font-family="sans-serif" font-size="13" lengthAdjust="spacing" textLength="187" x="172" y="136.7656">method=queryCustomerDTO</text><path d="M477.0467,88.5659 C507.0368,88.5659 548.1066,88.5659 585.7204,88.5659 " fill="none" id="Integrator-to-sinkclient" style="stroke:#A80036;stroke-width:1.0;"/><polygon fill="#A80036" points="590.7645,88.5659,581.7645,84.5659,585.7645,88.5659,581.7645,92.5659,590.7645,88.5659" style="stroke:#A80036;stroke-width:1.0;"/><text fill="#000000" font-family="sans-serif" font-size="13" lengthAdjust="spacing" textLength="52" x="508" y="84.6328">服务调用</text><path d="M776.0562,72.8507 C825.9786,66.7166 888.5542,62.8004 944,70.5659 C952.4894,71.7549 961.44,73.8036 969.8446,76.103 " fill="none" id="sinkclient-to-sink12" style="stroke:#A80036;stroke-width:1.0;"/><polygon fill="#A80036" points="974.9981,77.5616,967.4277,71.2617,970.1871,76.1999,965.2489,78.9593,974.9981,77.5616" style="stroke:#A80036;stroke-width:1.0;"/><text fill="#000000" font-family="sans-serif" font-size="13" lengthAdjust="spacing" textLength="81" x="834.5" y="62.6328">doService1()</text><path d="M776.0837,94.7482 C825.8773,97.1414 888.3245,98.6495 944,95.5659 C952.0075,95.1224 960.5613,94.3641 968.7015,93.5063 " fill="none" id="sinkclient-to-sink12-1" style="stroke:#A80036;stroke-width:1.0;"/><polygon fill="#A80036" points="973.7078,92.9612,964.3277,89.959,968.7372,93.5025,965.1937,97.912,973.7078,92.9612" style="stroke:#A80036;stroke-width:1.0;"/><text fill="#000000" font-family="sans-serif" font-size="13" lengthAdjust="spacing" textLength="81" x="834.5" y="91.6328">doService2()</text><path d="M740.3716,108.1285 C793.6349,123.6076 875.1272,139.9646 944,122.5659 C959.4543,118.6618 975.2357,110.1362 987.1378,102.5995 " fill="none" id="sinkclient-to-sink12-2" style="stroke:#A80036;stroke-width:1.0;"/><polygon fill="#A80036" points="991.3394,99.8779,981.611,101.4138,987.1429,102.5963,985.9604,108.1282,991.3394,99.8779" style="stroke:#A80036;stroke-width:1.0;"/><text fill="#000000" font-family="sans-serif" font-size="13" lengthAdjust="spacing" textLength="136" x="807" y="118.6328">queryCustomerDTO()</text><path d="M1039.0019,77.5616 C1048.8248,74.6911 1059.7486,72.0016 1070,70.5659 C1130.7405,62.0589 1146.896,65.2669 1208,70.5659 C1216.0125,71.2608 1224.3367,72.2542 1232.6246,73.4221 " fill="none" id="sink12-to-SinkInterface1Impl" style="stroke:#A80036;stroke-width:1.0;"/><polygon fill="#A80036" points="1237.7773,74.1708,1229.446,68.9182,1232.8293,73.4518,1228.2956,76.835,1237.7773,74.1708" style="stroke:#A80036;stroke-width:1.0;"/><text fill="#000000" font-family="sans-serif" font-size="13" lengthAdjust="spacing" textLength="81" x="1098.5" y="61.6328">doService1()</text><path d="M1040.2922,92.9612 C1049.8646,94.0358 1060.3306,95.0303 1070,95.5659 C1131.2395,98.9576 1146.702,97.6464 1208,95.5659 C1216.0104,95.294 1224.3652,94.9035 1232.6996,94.4441 " fill="none" id="sink12-to-SinkInterface1Impl-1" style="stroke:#A80036;stroke-width:1.0;"/><polygon fill="#A80036" points="1237.8831,94.1497,1228.6706,90.6669,1232.8912,94.4334,1229.1246,98.654,1237.8831,94.1497" style="stroke:#A80036;stroke-width:1.0;"/><text fill="#000000" font-family="sans-serif" font-size="13" lengthAdjust="spacing" textLength="81" x="1098.5" y="91.6328">doService2()</text><path d="M1022.1045,99.8607 C1034.3121,108.244 1052.3165,118.9836 1070,123.5659 C1129.3724,138.9508 1147.4875,133.5664 1208,123.5659 C1225.0554,120.7473 1243.082,115.4699 1259.2049,109.8523 " fill="none" id="sink12-to-SinkInterface1Impl-2" style="stroke:#A80036;stroke-width:1.0;"/><polygon fill="#A80036" points="1264.1443,108.1004,1254.3249,107.3391,1259.4319,109.7718,1256.9992,114.8788,1264.1443,108.1004" style="stroke:#A80036;stroke-width:1.0;"/><text fill="#000000" font-family="sans-serif" font-size="13" lengthAdjust="spacing" textLength="136" x="1071" y="119.6328">queryCustomerDTO()</text></g></svg>