<?xml version="1.0" encoding="UTF-8" standalone="no"?><svg xmlns="http://www.w3.org/2000/svg" xmlns:xlink="http://www.w3.org/1999/xlink" contentScriptType="application/ecmascript" contentStyleType="text/css" height="1063px" preserveAspectRatio="none" style="width:497px;height:1063px;" version="1.1" viewBox="0 0 497 1063" width="497px" zoomAndPan="magnify"><defs><filter height="300%" id="fot5m65tfuc8e" width="300%" x="-1" y="-1"><feGaussianBlur result="blurOut" stdDeviation="2.0"/><feColorMatrix in="blurOut" result="blurOut2" type="matrix" values="0 0 0 0 0 0 0 0 0 0 0 0 0 0 0 0 0 0 .4 0"/><feOffset dx="4.0" dy="4.0" in="blurOut2" result="blurOut3"/><feBlend in="SourceGraphic" in2="blurOut3" mode="normal"/></filter></defs><g><ellipse cx="235" cy="20" fill="#000000" filter="url(#fot5m65tfuc8e)" rx="10" ry="10" style="stroke:none;stroke-width:1.0;"/><rect fill="#FEFECE" filter="url(#fot5m65tfuc8e)" height="33.9688" rx="12.5" ry="12.5" style="stroke:#A80036;stroke-width:1.5;" width="124" x="173" y="50"/><text fill="#000000" font-family="sans-serif" font-size="12" lengthAdjust="spacing" textLength="104" x="183" y="71.1387">Source模块初始化</text><rect fill="#FFFFFF" filter="url(#fot5m65tfuc8e)" height="190.2031" style="stroke:#000000;stroke-width:2.0;" width="411" x="29.5" y="93.9688"/><path d="M188.5,93.9688 L188.5,103.2656 L178.5,113.2656 L29.5,113.2656 " fill="none" style="stroke:#000000;stroke-width:2.0;"/><text fill="#000000" font-family="sans-serif" font-size="14" lengthAdjust="spacing" textLength="149" x="32.5" y="107.9639">调用Source类init()方法</text><rect fill="#FEFECE" filter="url(#fot5m65tfuc8e)" height="33.9688" rx="12.5" ry="12.5" style="stroke:#A80036;stroke-width:1.5;" width="391" x="39.5" y="130.2656"/><text fill="#000000" font-family="sans-serif" font-size="12" lengthAdjust="spacing" textLength="371" x="49.5" y="151.4043">根据客户端消息类型，初始化消息处理器（xxx Source Converter）</text><rect fill="#FEFECE" filter="url(#fot5m65tfuc8e)" height="33.9688" rx="12.5" ry="12.5" style="stroke:#A80036;stroke-width:1.5;" width="116" x="177" y="184.2344"/><text fill="#000000" font-family="sans-serif" font-size="12" lengthAdjust="spacing" textLength="96" x="187" y="205.373">读取消息转换配置</text><rect fill="#FEFECE" filter="url(#fot5m65tfuc8e)" height="33.9688" rx="12.5" ry="12.5" style="stroke:#A80036;stroke-width:1.5;" width="164" x="153" y="238.2031"/><text fill="#000000" font-family="sans-serif" font-size="12" lengthAdjust="spacing" textLength="144" x="163" y="259.3418">读取聚合服务断言规则配置</text><rect fill="#FEFECE" filter="url(#fot5m65tfuc8e)" height="33.9688" rx="12.5" ry="12.5" style="stroke:#A80036;stroke-width:1.5;" width="68" x="201" y="348.1719"/><text fill="#000000" font-family="sans-serif" font-size="12" lengthAdjust="spacing" textLength="48" x="211" y="369.3105">通讯接入</text><rect fill="#FEFECE" filter="url(#fot5m65tfuc8e)" height="33.9688" rx="12.5" ry="12.5" style="stroke:#A80036;stroke-width:1.5;" width="68" x="201" y="402.1406"/><text fill="#000000" font-family="sans-serif" font-size="12" lengthAdjust="spacing" textLength="48" x="211" y="423.2793">读取消息</text><rect fill="#FFFFFF" filter="url(#fot5m65tfuc8e)" height="460.0469" style="stroke:#000000;stroke-width:2.0;" width="448" x="11" y="446.1094"/><path d="M206,446.1094 L206,455.4063 L196,465.4063 L11,465.4063 " fill="none" style="stroke:#000000;stroke-width:2.0;"/><text fill="#000000" font-family="sans-serif" font-size="14" lengthAdjust="spacing" textLength="185" x="14" y="460.1045">调用Source类process()方法</text><rect fill="#FEFECE" filter="url(#fot5m65tfuc8e)" height="33.9688" rx="12.5" ry="12.5" style="stroke:#A80036;stroke-width:1.5;" width="80" x="195" y="482.4063"/><text fill="#000000" font-family="sans-serif" font-size="12" lengthAdjust="spacing" textLength="60" x="205" y="503.5449">消息预解包</text><rect fill="#FEFECE" filter="url(#fot5m65tfuc8e)" height="33.9688" rx="12.5" ry="12.5" style="stroke:#A80036;stroke-width:1.5;" width="428" x="21" y="536.375"/><text fill="#000000" font-family="sans-serif" font-size="12" lengthAdjust="spacing" textLength="408" x="31" y="557.5137">（可选）根据预解包消息执行消息格式定位断言规则，定位消息格式配置文件</text><rect fill="#FEFECE" filter="url(#fot5m65tfuc8e)" height="33.9688" rx="12.5" ry="12.5" style="stroke:#A80036;stroke-width:1.5;" width="308" x="81" y="590.3438"/><text fill="#000000" font-family="sans-serif" font-size="12" lengthAdjust="spacing" textLength="288" x="91" y="611.4824">（可选）根据消息格式配置文件，进行最终的消息解包</text><rect fill="#FEFECE" filter="url(#fot5m65tfuc8e)" height="33.9688" rx="12.5" ry="12.5" style="stroke:#A80036;stroke-width:1.5;" width="331" x="69.5" y="644.3125"/><text fill="#000000" font-family="sans-serif" font-size="12" lengthAdjust="spacing" textLength="311" x="79.5" y="665.4512">根据解包消息执行聚合服务定位断言规则，定位聚合服务id</text><rect fill="#FEFECE" filter="url(#fot5m65tfuc8e)" height="33.9688" rx="12.5" ry="12.5" style="stroke:#A80036;stroke-width:1.5;" width="167" x="151.5" y="698.2813"/><text fill="#000000" font-family="sans-serif" font-size="12" lengthAdjust="spacing" textLength="147" x="161.5" y="719.4199">发送消息给Integrator处理</text><rect fill="#FEFECE" filter="url(#fot5m65tfuc8e)" height="33.9688" rx="12.5" ry="12.5" style="stroke:#A80036;stroke-width:1.5;" width="416" x="27" y="752.25"/><text fill="#000000" font-family="sans-serif" font-size="12" lengthAdjust="spacing" textLength="396" x="37" y="773.3887">（可选）根据返回消息执行消息格式定位断言规则，定位消息格式配置文件</text><rect fill="#FEFECE" filter="url(#fot5m65tfuc8e)" height="33.9688" rx="12.5" ry="12.5" style="stroke:#A80036;stroke-width:1.5;" width="284" x="93" y="806.2188"/><text fill="#000000" font-family="sans-serif" font-size="12" lengthAdjust="spacing" textLength="264" x="103" y="827.3574">（可选）根据消息格式配置文件，进行消息预打包</text><rect fill="#FEFECE" filter="url(#fot5m65tfuc8e)" height="33.9688" rx="12.5" ry="12.5" style="stroke:#A80036;stroke-width:1.5;" width="284" x="93" y="860.1875"/><text fill="#000000" font-family="sans-serif" font-size="12" lengthAdjust="spacing" textLength="264" x="103" y="881.3262">根据客户端配置的消息类型，进行最终的消息打包</text><rect fill="#FEFECE" filter="url(#fot5m65tfuc8e)" height="33.9688" rx="12.5" ry="12.5" style="stroke:#A80036;stroke-width:1.5;" width="128" x="171" y="926.1563"/><text fill="#000000" font-family="sans-serif" font-size="12" lengthAdjust="spacing" textLength="108" x="181" y="947.2949">返回消息给外部应用</text><polygon fill="#FEFECE" filter="url(#fot5m65tfuc8e)" points="235,304.1719,247,316.1719,235,328.1719,223,316.1719,235,304.1719" style="stroke:#A80036;stroke-width:1.5;"/><polygon fill="#FEFECE" filter="url(#fot5m65tfuc8e)" points="223,980.125,247,980.125,259,992.125,247,1004.125,223,1004.125,211,992.125,223,980.125" style="stroke:#A80036;stroke-width:1.5;"/><text fill="#000000" font-family="sans-serif" font-size="11" lengthAdjust="spacing" textLength="22" x="224" y="995.9331">结束</text><ellipse cx="235" cy="1035.125" fill="#FFFFFF" filter="url(#fot5m65tfuc8e)" rx="11" ry="11" style="stroke:#000000;stroke-width:1.0;"/><ellipse cx="235" cy="1035.125" fill="#000000" rx="6" ry="6" style="stroke:#7F7F7F;stroke-width:1.0;"/><line style="stroke:#A80036;stroke-width:1.5;" x1="235" x2="235" y1="30" y2="50"/><polygon fill="#A80036" points="231,40,235,50,239,40,235,44" style="stroke:#A80036;stroke-width:1.0;"/><line style="stroke:#A80036;stroke-width:1.5;" x1="235" x2="235" y1="164.2344" y2="184.2344"/><polygon fill="#A80036" points="231,174.2344,235,184.2344,239,174.2344,235,178.2344" style="stroke:#A80036;stroke-width:1.0;"/><line style="stroke:#A80036;stroke-width:1.5;" x1="235" x2="235" y1="218.2031" y2="238.2031"/><polygon fill="#A80036" points="231,228.2031,235,238.2031,239,228.2031,235,232.2031" style="stroke:#A80036;stroke-width:1.0;"/><line style="stroke:#A80036;stroke-width:1.5;" x1="235" x2="235" y1="83.9688" y2="130.2656"/><polygon fill="#A80036" points="231,120.2656,235,130.2656,239,120.2656,235,124.2656" style="stroke:#A80036;stroke-width:1.0;"/><line style="stroke:#A80036;stroke-width:1.5;" x1="235" x2="235" y1="382.1406" y2="402.1406"/><polygon fill="#A80036" points="231,392.1406,235,402.1406,239,392.1406,235,396.1406" style="stroke:#A80036;stroke-width:1.0;"/><line style="stroke:#A80036;stroke-width:1.5;" x1="235" x2="235" y1="516.375" y2="536.375"/><polygon fill="#A80036" points="231,526.375,235,536.375,239,526.375,235,530.375" style="stroke:#A80036;stroke-width:1.0;"/><line style="stroke:#A80036;stroke-width:1.5;" x1="235" x2="235" y1="570.3438" y2="590.3438"/><polygon fill="#A80036" points="231,580.3438,235,590.3438,239,580.3438,235,584.3438" style="stroke:#A80036;stroke-width:1.0;"/><line style="stroke:#A80036;stroke-width:1.5;" x1="235" x2="235" y1="624.3125" y2="644.3125"/><polygon fill="#A80036" points="231,634.3125,235,644.3125,239,634.3125,235,638.3125" style="stroke:#A80036;stroke-width:1.0;"/><line style="stroke:#A80036;stroke-width:1.5;" x1="235" x2="235" y1="678.2813" y2="698.2813"/><polygon fill="#A80036" points="231,688.2813,235,698.2813,239,688.2813,235,692.2813" style="stroke:#A80036;stroke-width:1.0;"/><line style="stroke:#A80036;stroke-width:1.5;" x1="235" x2="235" y1="732.25" y2="752.25"/><polygon fill="#A80036" points="231,742.25,235,752.25,239,742.25,235,746.25" style="stroke:#A80036;stroke-width:1.0;"/><line style="stroke:#A80036;stroke-width:1.5;" x1="235" x2="235" y1="786.2188" y2="806.2188"/><polygon fill="#A80036" points="231,796.2188,235,806.2188,239,796.2188,235,800.2188" style="stroke:#A80036;stroke-width:1.0;"/><line style="stroke:#A80036;stroke-width:1.5;" x1="235" x2="235" y1="840.1875" y2="860.1875"/><polygon fill="#A80036" points="231,850.1875,235,860.1875,239,850.1875,235,854.1875" style="stroke:#A80036;stroke-width:1.0;"/><line style="stroke:#A80036;stroke-width:1.5;" x1="235" x2="235" y1="436.1094" y2="482.4063"/><polygon fill="#A80036" points="231,472.4063,235,482.4063,239,472.4063,235,476.4063" style="stroke:#A80036;stroke-width:1.0;"/><line style="stroke:#A80036;stroke-width:1.5;" x1="235" x2="235" y1="894.1563" y2="926.1563"/><polygon fill="#A80036" points="231,916.1563,235,926.1563,239,916.1563,235,920.1563" style="stroke:#A80036;stroke-width:1.0;"/><line style="stroke:#A80036;stroke-width:1.5;" x1="235" x2="235" y1="328.1719" y2="348.1719"/><polygon fill="#A80036" points="231,338.1719,235,348.1719,239,338.1719,235,342.1719" style="stroke:#A80036;stroke-width:1.0;"/><line style="stroke:#A80036;stroke-width:1.5;" x1="259" x2="471" y1="992.125" y2="992.125"/><polygon fill="#A80036" points="467,663.1484,471,653.1484,475,663.1484,471,659.1484" style="stroke:#A80036;stroke-width:1.5;"/><line style="stroke:#A80036;stroke-width:1.5;" x1="471" x2="471" y1="316.1719" y2="992.125"/><line style="stroke:#A80036;stroke-width:1.5;" x1="471" x2="247" y1="316.1719" y2="316.1719"/><polygon fill="#A80036" points="257,312.1719,247,316.1719,257,320.1719,253,316.1719" style="stroke:#A80036;stroke-width:1.0;"/><line style="stroke:#A80036;stroke-width:1.5;" x1="235" x2="235" y1="960.125" y2="980.125"/><polygon fill="#A80036" points="231,970.125,235,980.125,239,970.125,235,974.125" style="stroke:#A80036;stroke-width:1.0;"/><line style="stroke:#A80036;stroke-width:1.5;" x1="235" x2="235" y1="272.1719" y2="304.1719"/><polygon fill="#A80036" points="231,294.1719,235,304.1719,239,294.1719,235,298.1719" style="stroke:#A80036;stroke-width:1.0;"/><line style="stroke:#A80036;stroke-width:1.5;" x1="235" x2="235" y1="1004.125" y2="1024.125"/><polygon fill="#A80036" points="231,1014.125,235,1024.125,239,1014.125,235,1018.125" style="stroke:#A80036;stroke-width:1.0;"/></g></svg>