<?xml version="1.0" encoding="UTF-8" standalone="no"?><svg xmlns="http://www.w3.org/2000/svg" xmlns:xlink="http://www.w3.org/1999/xlink" contentScriptType="application/ecmascript" contentStyleType="text/css" height="90px" preserveAspectRatio="none" style="width:616px;height:90px;" version="1.1" viewBox="0 0 616 90" width="616px" zoomAndPan="magnify"><defs><filter height="300%" id="fkssmzflwmyt6" width="300%" x="-1" y="-1"><feGaussianBlur result="blurOut" stdDeviation="2.0"/><feColorMatrix in="blurOut" result="blurOut2" type="matrix" values="0 0 0 0 0 0 0 0 0 0 0 0 0 0 0 0 0 0 .4 0"/><feOffset dx="4.0" dy="4.0" in="blurOut2" result="blurOut3"/><feBlend in="SourceGraphic" in2="blurOut3" mode="normal"/></filter></defs><g><ellipse cx="34" cy="14" fill="#FEFECE" filter="url(#fkssmzflwmyt6)" rx="8" ry="8" style="stroke:#A80036;stroke-width:1.5;"/><path d="M34,22 L34,49 M21,30 L47,30 M34,49 L21,64 M34,49 L47,64 " fill="none" filter="url(#fkssmzflwmyt6)" style="stroke:#A80036;stroke-width:1.5;"/><text fill="#000000" font-family="sans-serif" font-size="14" lengthAdjust="spacing" textLength="56" x="6" y="82.4951">服务发起</text><rect fill="#FEFECE" filter="url(#fkssmzflwmyt6)" height="22.2969" style="stroke:#000000;stroke-width:1.5;" width="87" x="208" y="34"/><text fill="#000000" font-family="sans-serif" font-size="14" lengthAdjust="spacing" textLength="67" x="218" y="49.9951">Integrator</text><rect fill="#FEFECE" filter="url(#fkssmzflwmyt6)" height="22.2969" style="stroke:#000000;stroke-width:1.5;" width="89" x="356" y="34"/><text fill="#000000" font-family="sans-serif" font-size="14" lengthAdjust="spacing" textLength="69" x="366" y="49.9951">Netty Sink</text><rect fill="#FEFECE" filter="url(#fkssmzflwmyt6)" height="22.2969" style="stroke:#000000;stroke-width:1.5;" width="98" x="506" y="34"/><text fill="#000000" font-family="sans-serif" font-size="14" lengthAdjust="spacing" textLength="78" x="516" y="49.9951">nc -l 10001</text><path d="M62.4343,45 C97.9531,45 159.2979,45 202.4584,45 " fill="none" id="服务发起-to-Integrator" style="stroke:#A80036;stroke-width:1.0;"/><polygon fill="#A80036" points="207.6288,45,198.6288,41,202.6288,45,198.6288,49,207.6288,45" style="stroke:#A80036;stroke-width:1.0;"/><text fill="#000000" font-family="sans-serif" font-size="13" lengthAdjust="spacing" textLength="84" x="93" y="41.0669">Open API接口</text><path d="M295.399,45 C312.6694,45 332.5954,45 350.4232,45 " fill="none" id="Integrator-to-netty" style="stroke:#A80036;stroke-width:1.0;"/><polygon fill="#A80036" points="355.8834,45,346.8834,41,350.8834,45,346.8834,49,355.8834,45" style="stroke:#A80036;stroke-width:1.0;"/><path d="M445.1878,45 C462.5392,45 482.5733,45 500.7408,45 " fill="none" id="netty-to-nc" style="stroke:#A80036;stroke-width:1.0;"/><polygon fill="#A80036" points="505.8117,45,496.8117,41,500.8117,45,496.8117,49,505.8117,45" style="stroke:#A80036;stroke-width:1.0;"/></g></svg>