<?xml version="1.0" encoding="UTF-8" standalone="no"?><svg xmlns="http://www.w3.org/2000/svg" xmlns:xlink="http://www.w3.org/1999/xlink" contentScriptType="application/ecmascript" contentStyleType="text/css" height="98px" preserveAspectRatio="none" style="width:426px;height:98px;" version="1.1" viewBox="0 0 426 98" width="426px" zoomAndPan="magnify"><defs><filter height="300%" id="f1l4sh4bv6qqxo" width="300%" x="-1" y="-1"><feGaussianBlur result="blurOut" stdDeviation="2.0"/><feColorMatrix in="blurOut" result="blurOut2" type="matrix" values="0 0 0 0 0 0 0 0 0 0 0 0 0 0 0 0 0 0 .4 0"/><feOffset dx="4.0" dy="4.0" in="blurOut2" result="blurOut3"/><feBlend in="SourceGraphic" in2="blurOut3" mode="normal"/></filter></defs><g><ellipse cx="34" cy="16" fill="#FEFECE" filter="url(#f1l4sh4bv6qqxo)" rx="8" ry="8" style="stroke:#A80036;stroke-width:1.5;"/><path d="M34,24 L34,51 M21,32 L47,32 M34,51 L21,66 M34,51 L47,66 " fill="none" filter="url(#f1l4sh4bv6qqxo)" style="stroke:#A80036;stroke-width:1.5;"/><text fill="#000000" font-family="sans-serif" font-size="14" lengthAdjust="spacing" textLength="56" x="6" y="84.4951">服务发起</text><rect fill="#FEFECE" filter="url(#f1l4sh4bv6qqxo)" height="22.2969" style="stroke:#000000;stroke-width:1.5;" width="87" x="208" y="36"/><text fill="#000000" font-family="sans-serif" font-size="14" lengthAdjust="spacing" textLength="67" x="218" y="51.9951">Integrator</text><rect fill="#FEFECE" filter="url(#f1l4sh4bv6qqxo)" height="22.2969" style="stroke:#000000;stroke-width:1.5;" width="58" x="356" y="7"/><text fill="#000000" font-family="sans-serif" font-size="14" lengthAdjust="spacing" textLength="38" x="366" y="22.9951">Sink1</text><rect fill="#FEFECE" filter="url(#f1l4sh4bv6qqxo)" height="22.2969" style="stroke:#000000;stroke-width:1.5;" width="58" x="356" y="64"/><text fill="#000000" font-family="sans-serif" font-size="14" lengthAdjust="spacing" textLength="38" x="366" y="79.9951">Sink2</text><path d="M62.4343,47 C97.9531,47 159.2979,47 202.4584,47 " fill="none" id="服务发起-to-Integrator" style="stroke:#A80036;stroke-width:1.0;"/><polygon fill="#A80036" points="207.6288,47,198.6288,43,202.6288,47,198.6288,51,207.6288,47" style="stroke:#A80036;stroke-width:1.0;"/><text fill="#000000" font-family="sans-serif" font-size="13" lengthAdjust="spacing" textLength="84" x="93" y="43.0669">Open API接口</text><path d="M295.2129,37.5043 C313.2685,33.5821 333.8872,29.1031 350.8088,25.4273 " fill="none" id="Integrator-to-Sink1" style="stroke:#A80036;stroke-width:1.0;"/><polygon fill="#A80036" points="355.9348,24.3138,346.2908,22.3155,351.0488,25.3752,347.989,30.1332,355.9348,24.3138" style="stroke:#A80036;stroke-width:1.0;"/><path d="M295.2129,56.1682 C313.2685,59.9552 333.8872,64.2797 350.8088,67.8288 " fill="none" id="Integrator-to-Sink2" style="stroke:#A80036;stroke-width:1.0;"/><polygon fill="#A80036" points="355.9348,68.9039,347.9476,63.1415,351.0413,67.8775,346.3053,70.9711,355.9348,68.9039" style="stroke:#A80036;stroke-width:1.0;"/></g></svg>