<?xml version="1.0" encoding="UTF-8" standalone="no"?><svg xmlns="http://www.w3.org/2000/svg" xmlns:xlink="http://www.w3.org/1999/xlink" contentScriptType="application/ecmascript" contentStyleType="text/css" height="185px" preserveAspectRatio="none" style="width:547px;height:185px;" version="1.1" viewBox="0 0 547 185" width="547px" zoomAndPan="magnify"><defs><filter height="300%" id="f1j1a9utr13ho7" width="300%" x="-1" y="-1"><feGaussianBlur result="blurOut" stdDeviation="2.0"/><feColorMatrix in="blurOut" result="blurOut2" type="matrix" values="0 0 0 0 0 0 0 0 0 0 0 0 0 0 0 0 0 0 .4 0"/><feOffset dx="4.0" dy="4.0" in="blurOut2" result="blurOut3"/><feBlend in="SourceGraphic" in2="blurOut3" mode="normal"/></filter></defs><g><ellipse cx="34" cy="74.5659" fill="#FEFECE" filter="url(#f1j1a9utr13ho7)" rx="8" ry="8" style="stroke:#A80036;stroke-width:1.5;"/><path d="M34,82.5659 L34,109.5659 M21,90.5659 L47,90.5659 M34,109.5659 L21,124.5659 M34,109.5659 L47,124.5659 " fill="none" filter="url(#f1j1a9utr13ho7)" style="stroke:#A80036;stroke-width:1.5;"/><text fill="#000000" font-family="sans-serif" font-size="14" lengthAdjust="spacing" textLength="56" x="6" y="143.061">服务发起</text><ellipse cx="169" cy="105.5659" fill="#FEFECE" filter="url(#f1j1a9utr13ho7)" rx="8" ry="8" style="stroke:#A80036;stroke-width:1.5;"/><text fill="#000000" font-family="sans-serif" font-size="14" lengthAdjust="spacing" textLength="77" x="130.5" y="135.561">开放API接口</text><rect fill="#FEFECE" filter="url(#f1j1a9utr13ho7)" height="22.2969" style="stroke:#000000;stroke-width:1.5;" width="87" x="276" y="94.5659"/><text fill="#000000" font-family="sans-serif" font-size="14" lengthAdjust="spacing" textLength="67" x="286" y="110.561">Integrator</text><rect fill="#FEFECE" filter="url(#f1j1a9utr13ho7)" height="22.2969" style="stroke:#000000;stroke-width:1.5;" width="58" x="477" y="94.5659"/><text fill="#000000" font-family="sans-serif" font-size="14" lengthAdjust="spacing" textLength="38" x="487" y="110.561">Sink3</text><path d="M62.3004,105.5659 C90.526,105.5659 132.7459,105.5659 154.6543,105.5659 " fill="none" id="服务发起-to-开放API接口" style="stroke:#A80036;stroke-width:1.0;"/><polygon fill="#A80036" points="159.7657,105.5659,150.7657,101.5659,154.7657,105.5659,150.7657,109.5659,159.7657,105.5659" style="stroke:#A80036;stroke-width:1.0;"/><path d="M178.4144,105.5659 C196.5564,105.5659 237.4945,105.5659 270.6243,105.5659 " fill="none" id="开放API接口-to-Integrator" style="stroke:#A80036;stroke-width:1.0;"/><polygon fill="#A80036" points="275.8697,105.5659,266.8697,101.5659,270.8697,105.5659,266.8697,109.5659,275.8697,105.5659" style="stroke:#A80036;stroke-width:1.0;"/><path d="M326.1495,94.4736 C337.3682,76.9798 361.9055,43.63 393,30.5659 C415.1264,21.2696 425.4114,20.081 447,30.5659 C472.2,42.8048 489.8516,71.5996 498.9316,89.738 " fill="none" id="Integrator-to-Sink3" style="stroke:#A80036;stroke-width:1.0;"/><polygon fill="#A80036" points="501.2644,94.5487,500.9364,84.7053,499.0827,90.0498,493.7382,88.1961,501.2644,94.5487" style="stroke:#A80036;stroke-width:1.0;"/><text fill="#000000" font-family="sans-serif" font-size="13" lengthAdjust="spacing" textLength="52" x="394" y="19.6328">服务调用</text><path d="M356.9488,94.5571 C368.4128,91.6865 381.131,88.9981 393,87.5659 C416.8272,84.6908 423.2626,84.0255 447,87.5659 C455.2452,88.7957 463.9314,90.9419 472.0279,93.3335 " fill="none" id="Integrator-to-Sink3-1" style="stroke:#A80036;stroke-width:1.0;"/><polygon fill="#A80036" points="476.9838,94.8483,469.5462,88.3922,472.2022,93.3867,467.2076,96.0428,476.9838,94.8483" style="stroke:#A80036;stroke-width:1.0;"/><text fill="#000000" font-family="sans-serif" font-size="13" lengthAdjust="spacing" textLength="52" x="394" y="81.6328">重试调用</text><path d="M363.3697,110.4313 C373.1125,111.3199 383.3972,112.1097 393,112.5659 C416.973,113.7049 423.0418,113.9822 447,112.5659 C455.1008,112.087 463.7946,111.2414 471.952,110.2996 " fill="none" id="Integrator-to-Sink3-2" style="stroke:#A80036;stroke-width:1.0;"/><polygon fill="#A80036" points="476.9517,109.7033,467.5412,106.7976,471.9869,110.2956,468.4889,114.7413,476.9517,109.7033" style="stroke:#A80036;stroke-width:1.0;"/><text fill="#000000" font-family="sans-serif" font-size="13" lengthAdjust="spacing" textLength="52" x="394" y="108.6328">重试调用</text><path d="M338.3873,116.7301 C352.7995,124.5707 373.4414,134.3766 393,138.5659 C416.4677,143.5925 423.776,144.6195 447,138.5659 C461.237,134.8549 475.6784,126.8652 486.7101,119.6771 " fill="none" id="Integrator-to-Sink3-3" style="stroke:#A80036;stroke-width:1.0;"/><polygon fill="#A80036" points="490.9146,116.8689,481.2088,118.5415,486.7568,119.646,485.6522,125.194,490.9146,116.8689" style="stroke:#A80036;stroke-width:1.0;"/><text fill="#000000" font-family="sans-serif" font-size="13" lengthAdjust="spacing" textLength="52" x="394" y="134.6328">重试调用</text><path d="M327.998,116.657 C340.3683,131.7832 364.9427,158.1868 393,168.5659 C415.5092,176.8926 424.9804,178.1124 447,168.5659 C469.178,158.9507 486.8326,136.4383 496.8585,121.1003 " fill="none" id="Integrator-to-Sink3-4" style="stroke:#A80036;stroke-width:1.0;"/><polygon fill="#A80036" points="499.7216,116.5928,491.5196,122.0451,497.0408,120.8134,498.2725,126.3345,499.7216,116.5928" style="stroke:#A80036;stroke-width:1.0;"/><text fill="#000000" font-family="sans-serif" font-size="13" lengthAdjust="spacing" textLength="52" x="394" y="164.6328">重试调用</text></g></svg>