<?xml version="1.0" encoding="UTF-8" standalone="no"?><svg xmlns="http://www.w3.org/2000/svg" xmlns:xlink="http://www.w3.org/1999/xlink" contentScriptType="application/ecmascript" contentStyleType="text/css" height="90px" preserveAspectRatio="none" style="width:1044px;height:90px;" version="1.1" viewBox="0 0 1044 90" width="1044px" zoomAndPan="magnify"><defs><filter height="300%" id="f4mh84wfwklku" width="300%" x="-1" y="-1"><feGaussianBlur result="blurOut" stdDeviation="2.0"/><feColorMatrix in="blurOut" result="blurOut2" type="matrix" values="0 0 0 0 0 0 0 0 0 0 0 0 0 0 0 0 0 0 .4 0"/><feOffset dx="4.0" dy="4.0" in="blurOut2" result="blurOut3"/><feBlend in="SourceGraphic" in2="blurOut3" mode="normal"/></filter></defs><g><ellipse cx="34" cy="14" fill="#FEFECE" filter="url(#f4mh84wfwklku)" rx="8" ry="8" style="stroke:#A80036;stroke-width:1.5;"/><path d="M34,22 L34,49 M21,30 L47,30 M34,49 L21,64 M34,49 L47,64 " fill="none" filter="url(#f4mh84wfwklku)" style="stroke:#A80036;stroke-width:1.5;"/><text fill="#000000" font-family="sans-serif" font-size="14" lengthAdjust="spacing" textLength="56" x="6" y="82.4951">服务发起</text><rect fill="#FEFECE" filter="url(#f4mh84wfwklku)" height="22.2969" style="stroke:#000000;stroke-width:1.5;" width="87" x="208" y="34"/><text fill="#000000" font-family="sans-serif" font-size="14" lengthAdjust="spacing" textLength="67" x="218" y="49.9951">Integrator</text><rect fill="#FEFECE" filter="url(#f4mh84wfwklku)" height="22.2969" style="stroke:#000000;stroke-width:1.5;" width="57" x="356" y="34"/><text fill="#000000" font-family="sans-serif" font-size="14" lengthAdjust="spacing" textLength="37" x="366" y="49.9951">sink9</text><rect fill="#FEFECE" filter="url(#f4mh84wfwklku)" height="22.2969" style="stroke:#000000;stroke-width:1.5;" width="112" x="565" y="34"/><text fill="#000000" font-family="sans-serif" font-size="14" lengthAdjust="spacing" textLength="92" x="575" y="49.9951">sink9Listener</text><rect fill="#FEFECE" filter="url(#f4mh84wfwklku)" height="22.2969" style="stroke:#000000;stroke-width:1.5;" width="217" x="815" y="34"/><text fill="#000000" font-family="sans-serif" font-size="14" lengthAdjust="spacing" textLength="197" x="825" y="49.9951">nc -l 4444|nc localhost 4445</text><path d="M62.4343,45 C97.9531,45 159.2979,45 202.4584,45 " fill="none" id="服务发起-to-Integrator" style="stroke:#A80036;stroke-width:1.0;"/><polygon fill="#A80036" points="207.6288,45,198.6288,41,202.6288,45,198.6288,49,207.6288,45" style="stroke:#A80036;stroke-width:1.0;"/><text fill="#000000" font-family="sans-serif" font-size="13" lengthAdjust="spacing" textLength="84" x="93" y="41.0669">Open API接口</text><path d="M295.0492,45 C313.1744,45 333.8924,45 350.8223,45 " fill="none" id="Integrator-to-sink9" style="stroke:#A80036;stroke-width:1.0;"/><polygon fill="#A80036" points="355.9478,45,346.9478,41,350.9478,45,346.9478,49,355.9478,45" style="stroke:#A80036;stroke-width:1.0;"/><path d="M413.0274,45 C449.1809,45 512.4788,45 559.7748,45 " fill="none" id="sink9-to-sink9Listener" style="stroke:#A80036;stroke-width:1.0;"/><polygon fill="#A80036" points="564.879,45,555.879,41,559.879,45,555.879,49,564.879,45" style="stroke:#A80036;stroke-width:1.0;"/><text fill="#000000" font-family="sans-serif" font-size="13" lengthAdjust="spacing" textLength="90" x="444" y="41.0669">RabbitMQ RPC</text><path d="M677.189,45 C714.3706,45 764.4412,45 809.7279,45 " fill="none" id="sink9Listener-to-nc" style="stroke:#A80036;stroke-width:1.0;"/><polygon fill="#A80036" points="814.9415,45,805.9415,41,809.9415,45,805.9415,49,814.9415,45" style="stroke:#A80036;stroke-width:1.0;"/><text fill="#000000" font-family="sans-serif" font-size="13" lengthAdjust="spacing" textLength="76" x="708" y="41.0669">TCP异步发送</text><path d="M882.3149,56.0375 C838.6977,66.2585 767.8704,78.668 707,70 C689.9892,67.5776 671.6393,62.5881 656.2762,57.6991 " fill="none" id="nc-to-sink9Listener" style="stroke:#A80036;stroke-width:1.0;"/><polygon fill="#A80036" points="651.1868,56.0488,658.5139,62.6301,655.9429,57.5912,660.9818,55.0203,651.1868,56.0488" style="stroke:#A80036;stroke-width:1.0;"/><text fill="#000000" font-family="sans-serif" font-size="13" lengthAdjust="spacing" textLength="76" x="708" y="66.0669">TCP异步接收</text></g></svg>