<?xml version="1.0" encoding="UTF-8" standalone="no"?><svg xmlns="http://www.w3.org/2000/svg" xmlns:xlink="http://www.w3.org/1999/xlink" contentScriptType="application/ecmascript" contentStyleType="text/css" height="90px" preserveAspectRatio="none" style="width:514px;height:90px;" version="1.1" viewBox="0 0 514 90" width="514px" zoomAndPan="magnify"><defs><filter height="300%" id="f1noubq4r5j69k" width="300%" x="-1" y="-1"><feGaussianBlur result="blurOut" stdDeviation="2.0"/><feColorMatrix in="blurOut" result="blurOut2" type="matrix" values="0 0 0 0 0 0 0 0 0 0 0 0 0 0 0 0 0 0 .4 0"/><feOffset dx="4.0" dy="4.0" in="blurOut2" result="blurOut3"/><feBlend in="SourceGraphic" in2="blurOut3" mode="normal"/></filter></defs><g><ellipse cx="34" cy="14" fill="#FEFECE" filter="url(#f1noubq4r5j69k)" rx="8" ry="8" style="stroke:#A80036;stroke-width:1.5;"/><path d="M34,22 L34,49 M21,30 L47,30 M34,49 L21,64 M34,49 L47,64 " fill="none" filter="url(#f1noubq4r5j69k)" style="stroke:#A80036;stroke-width:1.5;"/><text fill="#000000" font-family="sans-serif" font-size="14" lengthAdjust="spacing" textLength="56" x="6" y="82.4951">服务发起</text><rect fill="#FEFECE" filter="url(#f1noubq4r5j69k)" height="22.2969" style="stroke:#000000;stroke-width:1.5;" width="87" x="208" y="34"/><text fill="#000000" font-family="sans-serif" font-size="14" lengthAdjust="spacing" textLength="67" x="218" y="49.9951">Integrator</text><path d="M448,32.5 C448,22.5 477.5,22.5 477.5,22.5 C477.5,22.5 507,22.5 507,32.5 L507,57.7969 C507,67.7969 477.5,67.7969 477.5,67.7969 C477.5,67.7969 448,67.7969 448,57.7969 L448,32.5 " fill="#FEFECE" filter="url(#f1noubq4r5j69k)" style="stroke:#000000;stroke-width:1.5;"/><path d="M448,32.5 C448,42.5 477.5,42.5 477.5,42.5 C477.5,42.5 507,42.5 507,32.5 " fill="none" style="stroke:#000000;stroke-width:1.5;"/><text fill="#000000" font-family="sans-serif" font-size="14" lengthAdjust="spacing" textLength="39" x="458" y="59.4951">Redis</text><path d="M62.4343,45 C97.9531,45 159.2979,45 202.4584,45 " fill="none" id="服务发起-to-Integrator" style="stroke:#A80036;stroke-width:1.0;"/><polygon fill="#A80036" points="207.6288,45,198.6288,41,202.6288,45,198.6288,49,207.6288,45" style="stroke:#A80036;stroke-width:1.0;"/><text fill="#000000" font-family="sans-serif" font-size="13" lengthAdjust="spacing" textLength="84" x="93" y="41.0669">Open API接口</text><path d="M295.0751,45 C338.0397,45 402.8663,45 442.5608,45 " fill="none" id="Integrator-to-Redis" style="stroke:#A80036;stroke-width:1.0;"/><polygon fill="#A80036" points="447.7511,45,438.7511,41,442.7511,45,438.7511,49,447.7511,45" style="stroke:#A80036;stroke-width:1.0;"/><text fill="#000000" font-family="sans-serif" font-size="13" lengthAdjust="spacing" textLength="91" x="326" y="41.0669">存储并查询结果</text></g></svg>