<?xml version="1.0" encoding="UTF-8" standalone="no"?><svg xmlns="http://www.w3.org/2000/svg" xmlns:xlink="http://www.w3.org/1999/xlink" contentScriptType="application/ecmascript" contentStyleType="text/css" height="90px" preserveAspectRatio="none" style="width:525px;height:90px;" version="1.1" viewBox="0 0 525 90" width="525px" zoomAndPan="magnify"><defs><filter height="300%" id="f9u49pav1zs2j" width="300%" x="-1" y="-1"><feGaussianBlur result="blurOut" stdDeviation="2.0"/><feColorMatrix in="blurOut" result="blurOut2" type="matrix" values="0 0 0 0 0 0 0 0 0 0 0 0 0 0 0 0 0 0 .4 0"/><feOffset dx="4.0" dy="4.0" in="blurOut2" result="blurOut3"/><feBlend in="SourceGraphic" in2="blurOut3" mode="normal"/></filter></defs><g><ellipse cx="34" cy="14" fill="#FEFECE" filter="url(#f9u49pav1zs2j)" rx="8" ry="8" style="stroke:#A80036;stroke-width:1.5;"/><path d="M34,22 L34,49 M21,30 L47,30 M34,49 L21,64 M34,49 L47,64 " fill="none" filter="url(#f9u49pav1zs2j)" style="stroke:#A80036;stroke-width:1.5;"/><text fill="#000000" font-family="sans-serif" font-size="14" lengthAdjust="spacing" textLength="56" x="6" y="82.4951">服务发起</text><rect fill="#FEFECE" filter="url(#f9u49pav1zs2j)" height="22.2969" style="stroke:#000000;stroke-width:1.5;" width="87" x="208" y="34"/><text fill="#000000" font-family="sans-serif" font-size="14" lengthAdjust="spacing" textLength="67" x="218" y="49.9951">Integrator</text><rect fill="#FEFECE" filter="url(#f9u49pav1zs2j)" height="22.2969" style="stroke:#000000;stroke-width:1.5;" width="67" x="446" y="34"/><text fill="#000000" font-family="sans-serif" font-size="14" lengthAdjust="spacing" textLength="47" x="456" y="49.9951">Sink12</text><path d="M62.4343,45 C97.9531,45 159.2979,45 202.4584,45 " fill="none" id="服务发起-to-Integrator" style="stroke:#A80036;stroke-width:1.0;"/><polygon fill="#A80036" points="207.6288,45,198.6288,41,202.6288,45,198.6288,49,207.6288,45" style="stroke:#A80036;stroke-width:1.0;"/><text fill="#000000" font-family="sans-serif" font-size="13" lengthAdjust="spacing" textLength="84" x="93" y="41.0669">Open API接口</text><path d="M295.1909,45 C337.2652,45 400.3025,45 440.6639,45 " fill="none" id="Integrator-to-Sink12" style="stroke:#A80036;stroke-width:1.0;"/><polygon fill="#A80036" points="445.9593,45,436.9593,41,440.9593,45,436.9593,49,445.9593,45" style="stroke:#A80036;stroke-width:1.0;"/><text fill="#000000" font-family="sans-serif" font-size="13" lengthAdjust="spacing" textLength="89" x="326" y="41.0669">SinkClient接口</text></g></svg>