<?xml version="1.0" encoding="UTF-8" standalone="no"?><svg xmlns="http://www.w3.org/2000/svg" xmlns:xlink="http://www.w3.org/1999/xlink" contentScriptType="application/ecmascript" contentStyleType="text/css" height="94px" preserveAspectRatio="none" style="width:497px;height:94px;" version="1.1" viewBox="0 0 497 94" width="497px" zoomAndPan="magnify"><defs><filter height="300%" id="f1olck51bm6evh" width="300%" x="-1" y="-1"><feGaussianBlur result="blurOut" stdDeviation="2.0"/><feColorMatrix in="blurOut" result="blurOut2" type="matrix" values="0 0 0 0 0 0 0 0 0 0 0 0 0 0 0 0 0 0 .4 0"/><feOffset dx="4.0" dy="4.0" in="blurOut2" result="blurOut3"/><feBlend in="SourceGraphic" in2="blurOut3" mode="normal"/></filter></defs><g><ellipse cx="34" cy="14" fill="#FEFECE" filter="url(#f1olck51bm6evh)" rx="8" ry="8" style="stroke:#A80036;stroke-width:1.5;"/><path d="M34,22 L34,49 M21,30 L47,30 M34,49 L21,64 M34,49 L47,64 " fill="none" filter="url(#f1olck51bm6evh)" style="stroke:#A80036;stroke-width:1.5;"/><text fill="#000000" font-family="sans-serif" font-size="14" lengthAdjust="spacing" textLength="56" x="6" y="82.4951">服务发起</text><rect fill="#FEFECE" filter="url(#f1olck51bm6evh)" height="22.2969" style="stroke:#000000;stroke-width:1.5;" width="87" x="208" y="34"/><text fill="#000000" font-family="sans-serif" font-size="14" lengthAdjust="spacing" textLength="67" x="218" y="49.9951">Integrator</text><rect fill="#FEFECE" filter="url(#f1olck51bm6evh)" height="22.2969" style="stroke:#000000;stroke-width:1.5;" width="58" x="427" y="34"/><text fill="#000000" font-family="sans-serif" font-size="14" lengthAdjust="spacing" textLength="38" x="437" y="49.9951">Sink4</text><path d="M62.4343,45 C97.9531,45 159.2979,45 202.4584,45 " fill="none" id="服务发起-to-Integrator" style="stroke:#A80036;stroke-width:1.0;"/><polygon fill="#A80036" points="207.6288,45,198.6288,41,202.6288,45,198.6288,49,207.6288,45" style="stroke:#A80036;stroke-width:1.0;"/><text fill="#000000" font-family="sans-serif" font-size="13" lengthAdjust="spacing" textLength="84" x="93" y="41.0669">Open API接口</text><path d="M288.9488,33.9912 C300.4128,31.1206 313.131,28.4322 325,27 C356.7695,23.1665 365.3501,22.2794 397,27 C405.2452,28.2298 413.9314,30.376 422.0279,32.7676 " fill="none" id="Integrator-to-Sink4" style="stroke:#A80036;stroke-width:1.0;"/><polygon fill="#A80036" points="426.9838,34.2824,419.5462,27.8263,422.2022,32.8208,417.2076,35.4768,426.9838,34.2824" style="stroke:#A80036;stroke-width:1.0;"/><text fill="#FF0000" font-family="sans-serif" font-size="13" lengthAdjust="spacing" textLength="70" x="326" y="20.0669">woman.vm</text><path d="M295.3697,49.8654 C305.1125,50.754 315.3972,51.5438 325,52 C356.9639,53.5187 365.0558,53.8884 397,52 C405.1008,51.5211 413.7946,50.6755 421.952,49.7337 " fill="none" id="Integrator-to-Sink4-1" style="stroke:#A80036;stroke-width:1.0;"/><polygon fill="#A80036" points="426.9517,49.1374,417.5412,46.2317,421.9869,49.7297,418.4889,54.1753,426.9517,49.1374" style="stroke:#A80036;stroke-width:1.0;"/><text fill="#0000FF" font-family="sans-serif" font-size="13" lengthAdjust="spacing" textLength="53" x="334.5" y="48.0669">man.vm</text><path d="M269.7424,56.1617 C284.1545,64.2923 305.0902,74.6181 325,79 C356.252,85.8782 366.087,87.2697 397,79 C411.5184,75.1161 426.1666,66.7054 437.2357,59.2214 " fill="none" id="Integrator-to-Sink4-2" style="stroke:#A80036;stroke-width:1.0;"/><polygon fill="#A80036" points="441.4458,56.3029,431.7704,58.143,437.3366,59.1515,436.3281,64.7177,441.4458,56.3029" style="stroke:#A80036;stroke-width:1.0;"/><text fill="#000000" font-family="sans-serif" font-size="13" lengthAdjust="spacing" textLength="55" x="333.5" y="75.0669">error.vm</text></g></svg>