<?xml version="1.0" encoding="UTF-8" standalone="no"?><svg xmlns="http://www.w3.org/2000/svg" xmlns:xlink="http://www.w3.org/1999/xlink" contentScriptType="application/ecmascript" contentStyleType="text/css" height="1078px" preserveAspectRatio="none" style="width:521px;height:1078px;" version="1.1" viewBox="0 0 521 1078" width="521px" zoomAndPan="magnify"><defs><filter height="300%" id="f13wlohp22umsf" width="300%" x="-1" y="-1"><feGaussianBlur result="blurOut" stdDeviation="2.0"/><feColorMatrix in="blurOut" result="blurOut2" type="matrix" values="0 0 0 0 0 0 0 0 0 0 0 0 0 0 0 0 0 0 .4 0"/><feOffset dx="4.0" dy="4.0" in="blurOut2" result="blurOut3"/><feBlend in="SourceGraphic" in2="blurOut3" mode="normal"/></filter></defs><g><ellipse cx="247" cy="20" fill="#000000" filter="url(#f13wlohp22umsf)" rx="10" ry="10" style="stroke:none;stroke-width:1.0;"/><rect fill="#FEFECE" filter="url(#f13wlohp22umsf)" height="33.9688" rx="12.5" ry="12.5" style="stroke:#A80036;stroke-width:1.5;" width="106" x="194" y="50"/><text fill="#000000" font-family="sans-serif" font-size="12" lengthAdjust="spacing" textLength="86" x="204" y="71.1387">Sink模块初始化</text><rect fill="#FFFFFF" filter="url(#f13wlohp22umsf)" height="244.1719" style="stroke:#000000;stroke-width:2.0;" width="423" x="35.5" y="93.9688"/><path d="M174.5,93.9688 L174.5,103.2656 L164.5,113.2656 L35.5,113.2656 " fill="none" style="stroke:#000000;stroke-width:2.0;"/><text fill="#000000" font-family="sans-serif" font-size="14" lengthAdjust="spacing" textLength="129" x="38.5" y="107.9639">调用Sink类init()方法</text><rect fill="#FEFECE" filter="url(#f13wlohp22umsf)" height="33.9688" rx="12.5" ry="12.5" style="stroke:#A80036;stroke-width:1.5;" width="375" x="59.5" y="130.2656"/><text fill="#000000" font-family="sans-serif" font-size="12" lengthAdjust="spacing" textLength="355" x="69.5" y="151.4043">根据Sink端消息类型，初始化消息处理器（xxx Sink Converter）</text><rect fill="#FEFECE" filter="url(#f13wlohp22umsf)" height="33.9688" rx="12.5" ry="12.5" style="stroke:#A80036;stroke-width:1.5;" width="403" x="45.5" y="184.2344"/><text fill="#000000" font-family="sans-serif" font-size="12" lengthAdjust="spacing" textLength="383" x="55.5" y="205.373">根据Sink端通讯协议类型，初始化协议处理器（xxx Sink Connector）</text><rect fill="#FEFECE" filter="url(#f13wlohp22umsf)" height="33.9688" rx="12.5" ry="12.5" style="stroke:#A80036;stroke-width:1.5;" width="116" x="189" y="238.2031"/><text fill="#000000" font-family="sans-serif" font-size="12" lengthAdjust="spacing" textLength="96" x="199" y="259.3418">读取消息转换配置</text><rect fill="#FEFECE" filter="url(#f13wlohp22umsf)" height="33.9688" rx="12.5" ry="12.5" style="stroke:#A80036;stroke-width:1.5;" width="116" x="189" y="292.1719"/><text fill="#000000" font-family="sans-serif" font-size="12" lengthAdjust="spacing" textLength="96" x="199" y="313.3105">读取通讯协议配置</text><rect fill="#FEFECE" filter="url(#f13wlohp22umsf)" height="33.9688" rx="12.5" ry="12.5" style="stroke:#A80036;stroke-width:1.5;" width="155" x="169.5" y="402.1406"/><text fill="#000000" font-family="sans-serif" font-size="12" lengthAdjust="spacing" textLength="135" x="179.5" y="423.2793">读取Integrator发来消息</text><rect fill="#FFFFFF" filter="url(#f13wlohp22umsf)" height="475.0469" style="stroke:#000000;stroke-width:2.0;" width="472" x="11" y="446.1094"/><path d="M186,446.1094 L186,455.4063 L176,465.4063 L11,465.4063 " fill="none" style="stroke:#000000;stroke-width:2.0;"/><text fill="#000000" font-family="sans-serif" font-size="14" lengthAdjust="spacing" textLength="165" x="14" y="460.1045">调用Sink类process()方法</text><rect fill="#FEFECE" filter="url(#f13wlohp22umsf)" height="33.9688" rx="12.5" ry="12.5" style="stroke:#A80036;stroke-width:1.5;" width="416" x="39" y="482.4063"/><text fill="#000000" font-family="sans-serif" font-size="12" lengthAdjust="spacing" textLength="396" x="49" y="503.5449">（可选）根据发来消息执行消息格式定位断言规则，定位消息格式配置文件</text><rect fill="#FEFECE" filter="url(#f13wlohp22umsf)" height="33.9688" rx="12.5" ry="12.5" style="stroke:#A80036;stroke-width:1.5;" width="284" x="105" y="536.375"/><text fill="#000000" font-family="sans-serif" font-size="12" lengthAdjust="spacing" textLength="264" x="115" y="557.5137">（可选）根据消息格式配置文件，进行消息预打包</text><rect fill="#FEFECE" filter="url(#f13wlohp22umsf)" height="33.9688" rx="12.5" ry="12.5" style="stroke:#A80036;stroke-width:1.5;" width="286" x="104" y="590.3438"/><text fill="#000000" font-family="sans-serif" font-size="12" lengthAdjust="spacing" textLength="266" x="114" y="611.4824">根据Sink端配置的消息类型，完成最终的消息打包</text><rect fill="#FEFECE" filter="url(#f13wlohp22umsf)" height="33.9688" rx="12.5" ry="12.5" style="stroke:#A80036;stroke-width:1.5;" width="284" x="105" y="644.3125"/><text fill="#000000" font-family="sans-serif" font-size="12" lengthAdjust="spacing" textLength="264" x="115" y="665.4512">调用协议处理器，发送消息给外部应用服务并返回</text><rect fill="#FEFECE" filter="url(#f13wlohp22umsf)" height="33.9688" rx="12.5" ry="12.5" style="stroke:#A80036;stroke-width:1.5;" width="262" x="116" y="713.2813"/><text fill="#000000" font-family="sans-serif" font-size="12" lengthAdjust="spacing" textLength="242" x="126" y="734.4199">根据Sink端配置的消息类型，进行消息预解包</text><rect fill="#FEFECE" filter="url(#f13wlohp22umsf)" height="33.9688" rx="12.5" ry="12.5" style="stroke:#A80036;stroke-width:1.5;" width="452" x="21" y="767.25"/><text fill="#000000" font-family="sans-serif" font-size="12" lengthAdjust="spacing" textLength="432" x="31" y="788.3887">（可选）根据返回预解包消息执行消息格式定位断言规则，定位消息格式配置文件</text><rect fill="#FEFECE" filter="url(#f13wlohp22umsf)" height="33.9688" rx="12.5" ry="12.5" style="stroke:#A80036;stroke-width:1.5;" width="337" x="78.5" y="821.2188"/><text fill="#000000" font-family="sans-serif" font-size="12" lengthAdjust="spacing" textLength="317" x="88.5" y="842.3574">（可选）根据消息格式配置文件，打包成内部标准JSON格式</text><rect fill="#FEFECE" filter="url(#f13wlohp22umsf)" height="33.9688" rx="12.5" ry="12.5" style="stroke:#A80036;stroke-width:1.5;" width="176" x="159" y="875.1875"/><text fill="#000000" font-family="sans-serif" font-size="12" lengthAdjust="spacing" textLength="156" x="169" y="896.3262">封装成系统内部标准消息格式</text><rect fill="#FEFECE" filter="url(#f13wlohp22umsf)" height="33.9688" rx="12.5" ry="12.5" style="stroke:#A80036;stroke-width:1.5;" width="143" x="175.5" y="941.1563"/><text fill="#000000" font-family="sans-serif" font-size="12" lengthAdjust="spacing" textLength="123" x="185.5" y="962.2949">返回消息给Integrator</text><polygon fill="#FEFECE" filter="url(#f13wlohp22umsf)" points="247,358.1406,259,370.1406,247,382.1406,235,370.1406,247,358.1406" style="stroke:#A80036;stroke-width:1.5;"/><polygon fill="#FEFECE" filter="url(#f13wlohp22umsf)" points="235,995.125,259,995.125,271,1007.125,259,1019.125,235,1019.125,223,1007.125,235,995.125" style="stroke:#A80036;stroke-width:1.5;"/><text fill="#000000" font-family="sans-serif" font-size="11" lengthAdjust="spacing" textLength="22" x="236" y="1010.9331">结束</text><ellipse cx="247" cy="1050.125" fill="#FFFFFF" filter="url(#f13wlohp22umsf)" rx="11" ry="11" style="stroke:#000000;stroke-width:1.0;"/><ellipse cx="247" cy="1050.125" fill="#000000" rx="6" ry="6" style="stroke:#7F7F7F;stroke-width:1.0;"/><line style="stroke:#A80036;stroke-width:1.5;" x1="247" x2="247" y1="30" y2="50"/><polygon fill="#A80036" points="243,40,247,50,251,40,247,44" style="stroke:#A80036;stroke-width:1.0;"/><line style="stroke:#A80036;stroke-width:1.5;" x1="247" x2="247" y1="164.2344" y2="184.2344"/><polygon fill="#A80036" points="243,174.2344,247,184.2344,251,174.2344,247,178.2344" style="stroke:#A80036;stroke-width:1.0;"/><line style="stroke:#A80036;stroke-width:1.5;" x1="247" x2="247" y1="218.2031" y2="238.2031"/><polygon fill="#A80036" points="243,228.2031,247,238.2031,251,228.2031,247,232.2031" style="stroke:#A80036;stroke-width:1.0;"/><line style="stroke:#A80036;stroke-width:1.5;" x1="247" x2="247" y1="272.1719" y2="292.1719"/><polygon fill="#A80036" points="243,282.1719,247,292.1719,251,282.1719,247,286.1719" style="stroke:#A80036;stroke-width:1.0;"/><line style="stroke:#A80036;stroke-width:1.5;" x1="247" x2="247" y1="83.9688" y2="130.2656"/><polygon fill="#A80036" points="243,120.2656,247,130.2656,251,120.2656,247,124.2656" style="stroke:#A80036;stroke-width:1.0;"/><line style="stroke:#A80036;stroke-width:1.5;" x1="247" x2="247" y1="516.375" y2="536.375"/><polygon fill="#A80036" points="243,526.375,247,536.375,251,526.375,247,530.375" style="stroke:#A80036;stroke-width:1.0;"/><line style="stroke:#A80036;stroke-width:1.5;" x1="247" x2="247" y1="570.3438" y2="590.3438"/><polygon fill="#A80036" points="243,580.3438,247,590.3438,251,580.3438,247,584.3438" style="stroke:#A80036;stroke-width:1.0;"/><line style="stroke:#A80036;stroke-width:1.5;" x1="247" x2="247" y1="624.3125" y2="644.3125"/><polygon fill="#A80036" points="243,634.3125,247,644.3125,251,634.3125,247,638.3125" style="stroke:#A80036;stroke-width:1.0;"/><line style="stroke:#A80036;stroke-width:1.5;" x1="247" x2="247" y1="678.2813" y2="713.2813"/><polygon fill="#A80036" points="243,703.2813,247,713.2813,251,703.2813,247,707.2813" style="stroke:#A80036;stroke-width:1.0;"/><line style="stroke:#A80036;stroke-width:1.5;" x1="247" x2="247" y1="747.25" y2="767.25"/><polygon fill="#A80036" points="243,757.25,247,767.25,251,757.25,247,761.25" style="stroke:#A80036;stroke-width:1.0;"/><line style="stroke:#A80036;stroke-width:1.5;" x1="247" x2="247" y1="801.2188" y2="821.2188"/><polygon fill="#A80036" points="243,811.2188,247,821.2188,251,811.2188,247,815.2188" style="stroke:#A80036;stroke-width:1.0;"/><line style="stroke:#A80036;stroke-width:1.5;" x1="247" x2="247" y1="855.1875" y2="875.1875"/><polygon fill="#A80036" points="243,865.1875,247,875.1875,251,865.1875,247,869.1875" style="stroke:#A80036;stroke-width:1.0;"/><line style="stroke:#A80036;stroke-width:1.5;" x1="247" x2="247" y1="436.1094" y2="482.4063"/><polygon fill="#A80036" points="243,472.4063,247,482.4063,251,472.4063,247,476.4063" style="stroke:#A80036;stroke-width:1.0;"/><line style="stroke:#A80036;stroke-width:1.5;" x1="247" x2="247" y1="909.1563" y2="941.1563"/><polygon fill="#A80036" points="243,931.1563,247,941.1563,251,931.1563,247,935.1563" style="stroke:#A80036;stroke-width:1.0;"/><line style="stroke:#A80036;stroke-width:1.5;" x1="247" x2="247" y1="382.1406" y2="402.1406"/><polygon fill="#A80036" points="243,392.1406,247,402.1406,251,392.1406,247,396.1406" style="stroke:#A80036;stroke-width:1.0;"/><line style="stroke:#A80036;stroke-width:1.5;" x1="271" x2="495" y1="1007.125" y2="1007.125"/><polygon fill="#A80036" points="491,697.6328,495,687.6328,499,697.6328,495,693.6328" style="stroke:#A80036;stroke-width:1.5;"/><line style="stroke:#A80036;stroke-width:1.5;" x1="495" x2="495" y1="370.1406" y2="1007.125"/><line style="stroke:#A80036;stroke-width:1.5;" x1="495" x2="259" y1="370.1406" y2="370.1406"/><polygon fill="#A80036" points="269,366.1406,259,370.1406,269,374.1406,265,370.1406" style="stroke:#A80036;stroke-width:1.0;"/><line style="stroke:#A80036;stroke-width:1.5;" x1="247" x2="247" y1="975.125" y2="995.125"/><polygon fill="#A80036" points="243,985.125,247,995.125,251,985.125,247,989.125" style="stroke:#A80036;stroke-width:1.0;"/><line style="stroke:#A80036;stroke-width:1.5;" x1="247" x2="247" y1="326.1406" y2="358.1406"/><polygon fill="#A80036" points="243,348.1406,247,358.1406,251,348.1406,247,352.1406" style="stroke:#A80036;stroke-width:1.0;"/><line style="stroke:#A80036;stroke-width:1.5;" x1="247" x2="247" y1="1019.125" y2="1039.125"/><polygon fill="#A80036" points="243,1029.125,247,1039.125,251,1029.125,247,1033.125" style="stroke:#A80036;stroke-width:1.0;"/></g></svg>