<?xml version="1.0" encoding="UTF-8" standalone="no"?><svg xmlns="http://www.w3.org/2000/svg" xmlns:xlink="http://www.w3.org/1999/xlink" contentScriptType="application/ecmascript" contentStyleType="text/css" height="842px" preserveAspectRatio="none" style="width:345px;height:842px;" version="1.1" viewBox="0 0 345 842" width="345px" zoomAndPan="magnify"><defs><filter height="300%" id="fifvqmu53l9iq" width="300%" x="-1" y="-1"><feGaussianBlur result="blurOut" stdDeviation="2.0"/><feColorMatrix in="blurOut" result="blurOut2" type="matrix" values="0 0 0 0 0 0 0 0 0 0 0 0 0 0 0 0 0 0 .4 0"/><feOffset dx="4.0" dy="4.0" in="blurOut2" result="blurOut3"/><feBlend in="SourceGraphic" in2="blurOut3" mode="normal"/></filter></defs><g><ellipse cx="159" cy="20" fill="#000000" filter="url(#fifvqmu53l9iq)" rx="10" ry="10" style="stroke: none; stroke-width: 1.0;"/><rect fill="#FEFECE" filter="url(#fifvqmu53l9iq)" height="33.9688" rx="12.5" ry="12.5" style="stroke: #A80036; stroke-width: 1.5;" width="143" x="87.5" y="50"/><text fill="#000000" font-family="sans-serif" font-size="12" lengthAdjust="spacingAndGlyphs" textLength="123" x="97.5" y="71.1387">Integrator模块初始化</text><rect fill="#FEFECE" filter="url(#fifvqmu53l9iq)" height="33.9688" rx="12.5" ry="12.5" style="stroke: #A80036; stroke-width: 1.5;" width="214" x="52" y="103.9688"/><text fill="#000000" font-family="sans-serif" font-size="12" lengthAdjust="spacingAndGlyphs" textLength="194" x="62" y="125.1074">遍历config/service目录下所有文件</text><rect fill="#FEFECE" filter="url(#fifvqmu53l9iq)" height="47.9375" rx="12.5" ry="12.5" style="stroke: #A80036; stroke-width: 1.5;" width="296" x="11" y="201.9375"/><text fill="#000000" font-family="sans-serif" font-size="12" lengthAdjust="spacingAndGlyphs" textLength="276" x="21" y="223.0762">根据文件后缀，选择实例化不同的服务整合器实现类</text><text fill="#000000" font-family="sans-serif" font-size="12" lengthAdjust="spacingAndGlyphs" textLength="257" x="21" y="237.0449">（继承自AbstractIntegratorService抽象类）</text><rect fill="#FFFFFF" filter="url(#fifvqmu53l9iq)" height="82.2656" style="stroke: #000000; stroke-width: 2.0;" width="204" x="57" y="260.6768"/><path d="M251,260.6768 L251,269.9736 L241,279.9736 L57,279.9736 " fill="none" style="stroke: #000000; stroke-width: 2.0;"/><text fill="#000000" font-family="sans-serif" font-size="14" lengthAdjust="spacingAndGlyphs" textLength="184" x="60" y="274.6719">调用服务整合器类的init()方法</text><rect fill="#FEFECE" filter="url(#fifvqmu53l9iq)" height="33.9688" rx="12.5" ry="12.5" style="stroke: #A80036; stroke-width: 1.5;" width="92" x="113" y="296.9736"/><text fill="#000000" font-family="sans-serif" font-size="12" lengthAdjust="spacingAndGlyphs" textLength="72" x="123" y="318.1123">二次开发实现</text><rect fill="#FEFECE" filter="url(#fifvqmu53l9iq)" height="33.9688" rx="12.5" ry="12.5" style="stroke: #A80036; stroke-width: 1.5;" width="212" x="53" y="362.9424"/><text fill="#000000" font-family="sans-serif" font-size="12" lengthAdjust="spacingAndGlyphs" textLength="192" x="63" y="384.0811">服务ID和服务整合器实现类绑定关联</text><polygon fill="#FEFECE" filter="url(#fifvqmu53l9iq)" points="159,157.9375,171,169.9375,159,181.9375,147,169.9375,159,157.9375" style="stroke: #A80036; stroke-width: 1.5;"/><polygon fill="#FEFECE" filter="url(#fifvqmu53l9iq)" points="147,416.9111,171,416.9111,183,428.9111,171,440.9111,147,440.9111,135,428.9111,147,416.9111" style="stroke: #A80036; stroke-width: 1.5;"/><text fill="#000000" font-family="sans-serif" font-size="11" lengthAdjust="spacingAndGlyphs" textLength="22" x="148" y="432.7192">结束</text><rect fill="#FEFECE" filter="url(#fifvqmu53l9iq)" height="33.9688" rx="12.5" ry="12.5" style="stroke: #A80036; stroke-width: 1.5;" width="80" x="119" y="460.9111"/><text fill="#000000" font-family="sans-serif" font-size="12" lengthAdjust="spacingAndGlyphs" textLength="60" x="129" y="482.0498">初始化完成</text><rect fill="#FEFECE" filter="url(#fifvqmu53l9iq)" height="33.9688" rx="12.5" ry="12.5" style="stroke: #A80036; stroke-width: 1.5;" width="116" x="101" y="558.8799"/><text fill="#000000" font-family="sans-serif" font-size="12" lengthAdjust="spacingAndGlyphs" textLength="96" x="111" y="580.0186">收到聚合服务请求</text><rect fill="#FFFFFF" filter="url(#fifvqmu53l9iq)" height="82.2656" style="stroke: #000000; stroke-width: 2.0;" width="273" x="22.5" y="603.6504"/><path d="M285.5,603.6504 L285.5,612.9473 L275.5,622.9473 L22.5,622.9473 " fill="none" style="stroke: #000000; stroke-width: 2.0;"/><text fill="#000000" font-family="sans-serif" font-size="14" lengthAdjust="spacingAndGlyphs" textLength="253" x="25.5" y="617.6455">调用服务整合器类的doBizService()方法</text><rect fill="#FEFECE" filter="url(#fifvqmu53l9iq)" height="33.9688" rx="12.5" ry="12.5" style="stroke: #A80036; stroke-width: 1.5;" width="92" x="113" y="639.9473"/><text fill="#000000" font-family="sans-serif" font-size="12" lengthAdjust="spacingAndGlyphs" textLength="72" x="123" y="661.0859">二次开发实现</text><rect fill="#FEFECE" filter="url(#fifvqmu53l9iq)" height="33.9688" rx="12.5" ry="12.5" style="stroke: #A80036; stroke-width: 1.5;" width="128" x="95" y="705.916"/><text fill="#000000" font-family="sans-serif" font-size="12" lengthAdjust="spacingAndGlyphs" textLength="108" x="105" y="727.0547">返回消息给外部应用</text><polygon fill="#FEFECE" filter="url(#fifvqmu53l9iq)" points="159,514.8799,171,526.8799,159,538.8799,147,526.8799,159,514.8799" style="stroke: #A80036; stroke-width: 1.5;"/><polygon fill="#FEFECE" filter="url(#fifvqmu53l9iq)" points="147,759.8848,171,759.8848,183,771.8848,171,783.8848,147,783.8848,135,771.8848,147,759.8848" style="stroke: #A80036; stroke-width: 1.5;"/><text fill="#000000" font-family="sans-serif" font-size="11" lengthAdjust="spacingAndGlyphs" textLength="22" x="148" y="775.6929">结束</text><ellipse cx="159" cy="814.8848" fill="#FFFFFF" filter="url(#fifvqmu53l9iq)" rx="11" ry="11" style="stroke: #000000; stroke-width: 1.0;"/><ellipse cx="159" cy="814.8848" fill="#000000" rx="6" ry="6" style="stroke: #7F7F7F; stroke-width: 1.0;"/><line style="stroke: #A80036; stroke-width: 1.5;" x1="159" x2="159" y1="30" y2="50"/><polygon fill="#A80036" points="155,40,159,50,163,40,159,44" style="stroke: #A80036; stroke-width: 1.0;"/><line style="stroke: #A80036; stroke-width: 1.5;" x1="159" x2="159" y1="83.9688" y2="103.9688"/><polygon fill="#A80036" points="155,93.9688,159,103.9688,163,93.9688,159,97.9688" style="stroke: #A80036; stroke-width: 1.0;"/><line style="stroke: #A80036; stroke-width: 1.5;" x1="159" x2="159" y1="249.875" y2="296.9736"/><polygon fill="#A80036" points="155,286.9736,159,296.9736,163,286.9736,159,290.9736" style="stroke: #A80036; stroke-width: 1.0;"/><line style="stroke: #A80036; stroke-width: 1.5;" x1="159" x2="159" y1="330.9424" y2="362.9424"/><polygon fill="#A80036" points="155,352.9424,159,362.9424,163,352.9424,159,356.9424" style="stroke: #A80036; stroke-width: 1.0;"/><line style="stroke: #A80036; stroke-width: 1.5;" x1="159" x2="159" y1="181.9375" y2="201.9375"/><polygon fill="#A80036" points="155,191.9375,159,201.9375,163,191.9375,159,195.9375" style="stroke: #A80036; stroke-width: 1.0;"/><line style="stroke: #A80036; stroke-width: 1.5;" x1="183" x2="319" y1="428.9111" y2="428.9111"/><polygon fill="#A80036" points="315,308.8252,319,298.8252,323,308.8252,319,304.8252" style="stroke: #A80036; stroke-width: 1.5;"/><line style="stroke: #A80036; stroke-width: 1.5;" x1="319" x2="319" y1="169.9375" y2="428.9111"/><line style="stroke: #A80036; stroke-width: 1.5;" x1="319" x2="171" y1="169.9375" y2="169.9375"/><polygon fill="#A80036" points="181,165.9375,171,169.9375,181,173.9375,177,169.9375" style="stroke: #A80036; stroke-width: 1.0;"/><line style="stroke: #A80036; stroke-width: 1.5;" x1="159" x2="159" y1="396.9111" y2="416.9111"/><polygon fill="#A80036" points="155,406.9111,159,416.9111,163,406.9111,159,410.9111" style="stroke: #A80036; stroke-width: 1.0;"/><line style="stroke: #A80036; stroke-width: 1.5;" x1="159" x2="159" y1="137.9375" y2="157.9375"/><polygon fill="#A80036" points="155,147.9375,159,157.9375,163,147.9375,159,151.9375" style="stroke: #A80036; stroke-width: 1.0;"/><line style="stroke: #A80036; stroke-width: 1.5;" x1="159" x2="159" y1="440.9111" y2="460.9111"/><polygon fill="#A80036" points="155,450.9111,159,460.9111,163,450.9111,159,454.9111" style="stroke: #A80036; stroke-width: 1.0;"/><line style="stroke: #A80036; stroke-width: 1.5;" x1="159" x2="159" y1="592.8486" y2="639.9473"/><polygon fill="#A80036" points="155,629.9473,159,639.9473,163,629.9473,159,633.9473" style="stroke: #A80036; stroke-width: 1.0;"/><line style="stroke: #A80036; stroke-width: 1.5;" x1="159" x2="159" y1="673.916" y2="705.916"/><polygon fill="#A80036" points="155,695.916,159,705.916,163,695.916,159,699.916" style="stroke: #A80036; stroke-width: 1.0;"/><line style="stroke: #A80036; stroke-width: 1.5;" x1="159" x2="159" y1="538.8799" y2="558.8799"/><polygon fill="#A80036" points="155,548.8799,159,558.8799,163,548.8799,159,552.8799" style="stroke: #A80036; stroke-width: 1.0;"/><line style="stroke: #A80036; stroke-width: 1.5;" x1="183" x2="307.5" y1="771.8848" y2="771.8848"/><polygon fill="#A80036" points="303.5,658.7832,307.5,648.7832,311.5,658.7832,307.5,654.7832" style="stroke: #A80036; stroke-width: 1.5;"/><line style="stroke: #A80036; stroke-width: 1.5;" x1="307.5" x2="307.5" y1="526.8799" y2="771.8848"/><line style="stroke: #A80036; stroke-width: 1.5;" x1="307.5" x2="171" y1="526.8799" y2="526.8799"/><polygon fill="#A80036" points="181,522.8799,171,526.8799,181,530.8799,177,526.8799" style="stroke: #A80036; stroke-width: 1.0;"/><line style="stroke: #A80036; stroke-width: 1.5;" x1="159" x2="159" y1="739.8848" y2="759.8848"/><polygon fill="#A80036" points="155,749.8848,159,759.8848,163,749.8848,159,753.8848" style="stroke: #A80036; stroke-width: 1.0;"/><line style="stroke: #A80036; stroke-width: 1.5;" x1="159" x2="159" y1="494.8799" y2="514.8799"/><polygon fill="#A80036" points="155,504.8799,159,514.8799,163,504.8799,159,508.8799" style="stroke: #A80036; stroke-width: 1.0;"/><line style="stroke: #A80036; stroke-width: 1.5;" x1="159" x2="159" y1="783.8848" y2="803.8848"/><polygon fill="#A80036" points="155,793.8848,159,803.8848,163,793.8848,159,797.8848" style="stroke: #A80036; stroke-width: 1.0;"/></g></svg>